<svg id="visual" viewBox="0 0 900 600" width="900" height="600" xmlns="http://www.w3.org/2000/svg" xmlns:xlink="http://www.w3.org/1999/xlink" version="1.1"><g transform="translate(443.2385513716946 295.8132685432206)"><path d="M144.5 -164.7C192.6 -131.9 240.6 -91.4 257.6 -38.9C274.6 13.6 260.7 78 228.1 129C195.4 179.9 144.1 217.3 89.8 229.5C35.6 241.8 -21.5 229 -80.3 211.5C-139 194.1 -199.4 172 -228.7 128.6C-257.9 85.1 -256 20.1 -239.3 -36.5C-222.5 -93.2 -191 -141.6 -148.6 -175.5C-106.3 -209.3 -53.1 -228.7 -2.5 -225.7C48.2 -222.8 96.4 -197.6 144.5 -164.7" fill="#BB004B"></path></g></svg>