<svg id="visual" viewBox="0 0 1440 900" width="1440" height="900" xmlns="http://www.w3.org/2000/svg" xmlns:xlink="http://www.w3.org/1999/xlink" version="1.1"><path d="M0 592L34.3 592.3C68.7 592.7 137.3 593.3 205.8 582.2C274.3 571 342.7 548 411.2 545.3C479.7 542.7 548.3 560.3 617 579.2C685.7 598 754.3 618 823 621.7C891.7 625.3 960.3 612.7 1028.8 593.5C1097.3 574.3 1165.7 548.7 1234.2 559.2C1302.7 569.7 1371.3 616.3 1405.7 639.7L1440 663L1440 901L1405.7 901C1371.3 901 1302.7 901 1234.2 901C1165.7 901 1097.3 901 1028.8 901C960.3 901 891.7 901 823 901C754.3 901 685.7 901 617 901C548.3 901 479.7 901 411.2 901C342.7 901 274.3 901 205.8 901C137.3 901 68.7 901 34.3 901L0 901Z" fill="#fa7268"></path><path d="M0 627L34.3 632.5C68.7 638 137.3 649 205.8 641C274.3 633 342.7 606 411.2 593.3C479.7 580.7 548.3 582.3 617 606.3C685.7 630.3 754.3 676.7 823 696.5C891.7 716.3 960.3 709.7 1028.8 688.5C1097.3 667.3 1165.7 631.7 1234.2 625.3C1302.7 619 1371.3 642 1405.7 653.5L1440 665L1440 901L1405.7 901C1371.3 901 1302.7 901 1234.2 901C1165.7 901 1097.3 901 1028.8 901C960.3 901 891.7 901 823 901C754.3 901 685.7 901 617 901C548.3 901 479.7 901 411.2 901C342.7 901 274.3 901 205.8 901C137.3 901 68.7 901 34.3 901L0 901Z" fill="#fa9774"></path><path d="M0 719L34.3 727.7C68.7 736.3 137.3 753.7 205.8 754.8C274.3 756 342.7 741 411.2 739.7C479.7 738.3 548.3 750.7 617 758.8C685.7 767 754.3 771 823 753.7C891.7 736.3 960.3 697.7 1028.8 693.7C1097.3 689.7 1165.7 720.3 1234.2 719C1302.7 717.7 1371.3 684.3 1405.7 667.7L1440 651L1440 901L1405.7 901C1371.3 901 1302.7 901 1234.2 901C1165.7 901 1097.3 901 1028.8 901C960.3 901 891.7 901 823 901C754.3 901 685.7 901 617 901C548.3 901 479.7 901 411.2 901C342.7 901 274.3 901 205.8 901C137.3 901 68.7 901 34.3 901L0 901Z" fill="#f9b88c"></path><path d="M0 767L34.3 772.7C68.7 778.3 137.3 789.7 205.8 787.3C274.3 785 342.7 769 411.2 772.7C479.7 776.3 548.3 799.7 617 809.8C685.7 820 754.3 817 823 804C891.7 791 960.3 768 1028.8 758.7C1097.3 749.3 1165.7 753.7 1234.2 754.3C1302.7 755 1371.3 752 1405.7 750.5L1440 749L1440 901L1405.7 901C1371.3 901 1302.7 901 1234.2 901C1165.7 901 1097.3 901 1028.8 901C960.3 901 891.7 901 823 901C754.3 901 685.7 901 617 901C548.3 901 479.7 901 411.2 901C342.7 901 274.3 901 205.8 901C137.3 901 68.7 901 34.3 901L0 901Z" fill="#f8d6af"></path><path d="M0 804L34.3 811.8C68.7 819.7 137.3 835.3 205.8 842.5C274.3 849.7 342.7 848.3 411.2 844.3C479.7 840.3 548.3 833.7 617 825.7C685.7 817.7 754.3 808.3 823 810C891.7 811.7 960.3 824.3 1028.8 821.5C1097.3 818.7 1165.7 800.3 1234.2 799.5C1302.7 798.7 1371.3 815.3 1405.7 823.7L1440 832L1440 901L1405.7 901C1371.3 901 1302.7 901 1234.2 901C1165.7 901 1097.3 901 1028.8 901C960.3 901 891.7 901 823 901C754.3 901 685.7 901 617 901C548.3 901 479.7 901 411.2 901C342.7 901 274.3 901 205.8 901C137.3 901 68.7 901 34.3 901L0 901Z" fill="#fcf0d9"></path></svg>