<svg width="1091" height="1130" viewBox="0 0 1091 1130" fill="none" xmlns="http://www.w3.org/2000/svg">
<path d="M1088.4 477.368L1088.57 474.181L1088.77 470.109C1088.86 468.368 1088.92 466.638 1089 464.907L1089.17 460.777L1089.35 455.901C1089.41 454.352 1089.47 452.798 1089.51 451.251L1089.62 447.499C1089.67 445.7 1089.72 443.901 1089.76 442.108L1089.83 438.87C1089.87 436.962 1089.92 435.054 1089.95 433.152C1089.99 430.241 1090.03 427.334 1090.06 424.438C1090.07 422.484 1090.08 420.536 1090.09 418.59L1090.11 415.408L1090.1 410.365L1090.1 406.447C1090.09 404.682 1090.08 402.935 1090.06 401.182L1090.03 397.829L1089.96 392.118L1089.91 389.194C1089.88 387.298 1089.84 385.412 1089.8 383.529L1089.73 380.593L1089.59 375.099L1089.49 371.867L1089.32 366.441L1089.23 363.854L1089.01 358.074L1088.89 355.298L1088.66 349.959L1088.51 346.932C1088.43 345.149 1088.34 343.374 1088.25 341.603L1088.16 339.975C1087.5 327.474 1086.7 315.349 1085.78 303.663L1085.74 303.127L1085.2 296.503L1085.14 295.725L1084.64 289.866L1084.49 288.142L1084.03 283.087L1083.81 280.659L1083.37 276.113L1083.13 273.573L1082.63 268.614L1082.5 267.335C1082.3 265.411 1082.1 263.497 1081.9 261.601L1081.83 260.956C1081.62 258.998 1081.41 257.05 1081.19 255.126L1081.09 254.233C1079.46 239.596 1077.74 226.079 1076.03 213.873L1075.98 213.474C1075.51 210.156 1075.04 206.934 1074.59 203.816L1074.43 202.72L1073.89 199.155L1073.66 197.59L1073.07 193.764L1073.03 193.474C1071.84 185.81 1070.69 178.881 1069.65 172.804L1069.03 169.234L1069.02 169.172C1068.23 164.701 1067.51 160.766 1066.87 157.355L1066.77 156.847C1065.32 149.131 1064.31 144.311 1064 142.883C1061.81 132.952 1058.68 123.3 1053.06 114.213C1038.32 88.0512 1014.95 77.115 989.144 69.7692C814.44 19.5854 677.24 -1.32187 545.055 0.0642855C412.864 -1.32187 275.672 19.5854 100.968 69.7692C75.1586 77.115 51.7897 88.0512 37.0477 114.213C31.4345 123.3 28.2992 132.952 26.1112 142.883C25.8029 144.311 24.7918 149.131 23.3351 156.847L23.238 157.355C22.5993 160.766 21.88 164.695 21.0903 169.172L21.0804 169.234L20.4637 172.804C19.412 178.881 18.2699 185.81 17.0832 193.474L17.0365 193.764L16.4542 197.59L16.215 199.155L15.6826 202.72L15.5239 203.816C15.0605 206.94 14.597 210.156 14.1356 213.474L14.079 213.873C12.3765 226.083 10.6461 239.596 9.01813 254.233L8.91545 255.126C8.69785 257.05 8.4858 258.998 8.2803 260.956L8.20836 261.601L7.61379 267.335L7.48283 268.614L6.98479 273.573L6.73331 276.113L6.30599 280.659L6.07665 283.087L5.61919 288.142L5.47224 289.866C5.30098 291.808 5.13327 293.761 4.96806 295.725L4.90595 296.503C4.72261 298.695 4.54095 300.899 4.36365 303.127L4.32983 303.663C3.41513 315.349 2.61073 327.474 1.94787 339.975L1.85564 341.603L1.59371 346.932L1.45045 349.959L1.2168 355.298L1.10183 358.074L0.884166 363.854L0.793782 366.441L0.616703 371.867L0.519555 375.099L0.382442 380.593L0.314193 383.529L0.199214 389.194L0.154944 392.118L0.0805464 397.829L0.0461144 401.182C0.0340258 402.935 0.0177266 404.682 0.0116823 406.447L0.00614858 410.365L0 415.408L0.0178309 418.59C0.0279047 420.536 0.03413 422.484 0.052263 424.438C0.0804697 427.334 0.121072 430.235 0.165397 433.152C0.193604 435.054 0.239465 436.962 0.279761 438.87L0.348625 442.108C0.38892 443.901 0.438888 445.7 0.491272 447.499L0.600102 451.251C0.644427 452.798 0.702937 454.352 0.75935 455.901C0.815764 457.523 0.874586 459.151 0.937044 460.777L1.10797 464.907C1.18252 466.638 1.26304 468.368 1.34162 470.109L1.54145 474.181C1.63413 475.998 1.73075 477.826 1.83351 479.641L2.0567 483.507L2.39364 489.048L2.65557 493.023C2.78653 494.897 2.91946 496.768 3.05646 498.642L3.33622 502.474C3.48934 504.451 3.64848 506.427 3.80966 508.414L4.09004 511.823C4.28346 514.063 4.48279 516.302 4.68829 518.54L4.94592 521.326C5.16352 523.645 5.39716 525.97 5.63087 528.3L5.9051 531.007L6.00163 532.007L6.03238 532.166C6.81411 539.596 7.67604 547.045 8.63507 554.498C48.1285 550.277 90.157 551.631 132.727 560.107L217.544 295.103C227.235 264.817 249.103 260.362 279.823 251.03C331.949 235.2 355.719 228.946 407.852 213.102C352.578 337.463 297.311 461.816 242.038 586.172C415.697 643.762 558.54 743.223 772.714 678.817C773.113 678.698 775.752 677.608 777.602 676.852C780.926 656.316 786.22 634.202 793.508 610.534C800.967 586.297 808.842 561.561 817.135 536.312C825.758 509.951 870.408 404.809 852.156 376.543C849.066 371.746 843.835 370.735 836.483 373.511C770.206 398.555 677.589 581.671 649.632 595.081C626.281 606.285 601.446 601.643 573.753 595.788C563.039 593.528 555.655 590.489 551 583.442C545.25 574.72 550.241 556.651 555.381 532.2C567.175 476.141 592.817 394.277 596.222 366.413C599.55 339.164 582.447 338.164 566.313 355.801C515.619 411.209 475.659 501.298 430.05 618.565C425.904 629.227 348.899 591.323 320.07 578.679C302.108 570.797 312.36 557.999 319.974 539.066C346.736 472.491 437.926 262.715 566.569 202.075C684.795 146.35 778.939 232.028 750.982 368.194C794.775 325.457 885.355 289.461 953.539 312.156C968.702 317.205 981.033 324.395 990.548 333.74C1000.05 343.076 1006.62 354.31 1010.24 367.441C1013.86 380.571 1014.4 394.449 1011.87 409.092C1008.82 426.761 1003.82 446.198 996.887 467.403C989.948 488.609 982.838 510.819 975.55 534.046C960.194 577.468 950.136 611.038 945.379 634.768C940.626 658.498 941.118 671.747 946.852 674.523C952.592 677.297 963.683 668.972 980.126 649.53C996.573 630.096 1018.04 598.667 1044.52 555.251C1060.09 529.5 1074.48 504.005 1087.68 478.762L1088.4 477.368ZM933.059 142.941C778.071 98.4231 657.034 80.2097 540.379 81.9867C423.756 83.7557 310.681 105.574 171.849 141.08H171.632C143.619 147.823 126.805 156.487 116.548 166.323C107.163 175.323 103.15 185.872 100.694 196.967L100.728 196.973C99.0194 204.918 72.4228 331.876 78.997 479.413C79.6478 494.073 80.6311 508.934 81.995 523.897C72.7714 523.954 62.4799 524.252 54.3584 524.016C53.0689 509.413 52.1198 494.913 51.4852 480.606C44.7518 329.456 72.0059 199.367 73.7547 191.229L73.8051 191.121C77.3008 175.282 83.2058 160.023 97.559 146.26C111.036 133.335 131.808 122.266 165.064 114.231L165.052 114.185C305.592 78.2392 420.456 56.1493 540.052 54.3259C659.611 52.5106 783.086 71.0143 940.61 116.264C957.115 120.976 972.746 127.299 986.072 138.64C999.685 150.223 1010.35 166.55 1016.24 190.846L1016.36 191.171C1017.37 195.889 1026.93 241.538 1033.5 308.501C1031.82 307.352 1030.09 306.365 1028.31 305.515C1026.72 304.115 1024.96 302.819 1023.04 301.642C1016.11 297.405 1011.29 293.247 1003.92 290.847C997.768 236.912 990.262 201.132 989.384 197.032L989.406 197.026C981.474 164.717 963.724 151.651 933.111 142.941H933.059ZM1043.71 426.643C1042.1 458.121 1039.77 488.482 1034.9 519.63C1023.08 533.927 1010.05 547.901 998.732 562.647C1005.28 533.606 1005.62 539.894 1008.71 510.676C1016.54 500.973 1038.27 437.722 1043.71 426.643Z" fill="#D1D3D4"/>
<path d="M27.4114 650.873C32.0715 670.914 37.5778 690.852 44.4884 710.928C65.986 693.804 79.8397 679.721 91.4568 653.45C81.5825 652.08 71.7484 651.153 61.9486 650.755C49.5779 650.251 38.1098 650.337 27.4114 650.873ZM933.891 816.177C910.391 845.161 883.022 872.347 854.13 897.356C751.659 986.062 629.579 1047.85 595.477 1064.29L591.772 1065.77C555.095 1079.74 538.977 1085.87 494.573 1064.29L494.584 1064.26C460.431 1047.8 338.401 986.028 235.978 897.356C203.647 869.371 173.23 838.662 148.003 805.761C155.823 801.471 162.709 794.442 168.259 786.88C192.527 818.897 222.265 848.959 253.996 876.424C353.924 962.936 473.185 1023.29 506.499 1039.34H506.549C540.297 1055.75 553.05 1050.9 582.062 1039.85L584.376 1038.98C618.693 1022.39 736.914 962.298 836.111 876.424C850.069 864.34 863.644 851.752 876.535 838.72C877.369 838.748 878.219 838.764 879.087 838.764C895.895 838.764 896.364 835.162 910.469 830.752C918.202 828.332 926.302 823.323 932.926 816.56L933.891 816.177ZM401.612 1065.61L401.824 1065.74C403.863 1066.91 405.879 1068.07 407.884 1069.22L408.221 1069.41C410.179 1070.53 412.115 1071.63 414.029 1072.71L414.634 1073.05C426.575 1079.81 437.7 1085.88 447.776 1091.26L448.433 1091.6L452.39 1093.7L454.137 1094.63L457.735 1096.52L458.809 1097.08L462.538 1099.03L462.728 1099.12L466.794 1101.22L467.182 1101.42L471.426 1103.6L471.694 1103.73L475.447 1105.64L476.314 1106.08L477.508 1106.68L480.111 1107.98L481.322 1108.59L484.145 1109.99L485.132 1110.48L487.451 1111.63L488.662 1112.22C490.85 1113.29 492.848 1114.27 494.617 1115.12C516.171 1125.6 531.107 1129.5 545.054 1129.11C559 1129.5 573.935 1125.6 595.489 1115.12C597.26 1114.26 599.253 1113.29 601.445 1112.22L602.652 1111.63L604.968 1110.48L605.964 1109.99L608.784 1108.59L609.995 1107.98L612.601 1106.68L613.793 1106.08L614.662 1105.64L618.407 1103.73L618.681 1103.6L622.926 1101.42L623.313 1101.22L627.381 1099.12L627.568 1099.03L631.297 1097.08L632.371 1096.52L635.97 1094.63L637.71 1093.7L641.675 1091.6L642.332 1091.26C652.412 1085.88 663.525 1079.81 675.473 1073.05L676.074 1072.71C677.992 1071.63 679.928 1070.53 681.882 1069.41L682.225 1069.22C684.223 1068.07 686.238 1066.91 688.283 1065.74L688.494 1065.61C803.397 999.261 980.358 877.744 1037.74 732.258C1049.17 703.302 1057.32 674.781 1063.8 646.026C1066.69 634.963 1069.27 623.432 1071.91 610.52C1042.6 655.489 1015.16 691.84 989.609 719.579C941.356 771.58 895.97 797.583 853.434 797.583C827.917 797.583 808.2 790.511 794.288 776.377C783.682 765.771 777.394 752.013 775.408 735.103C773.419 718.187 774.082 699.26 777.372 678.304L777.565 677.071C775.899 677.877 773.677 678.911 773.453 679.088C552.866 850.758 366.796 740.367 197.804 681.48C177.296 725.702 127.118 770.46 85.7067 796.07C161.516 912.993 303.975 1009.23 401.612 1065.61Z" fill="#BA1319"/>
</svg>
