<svg width="206" height="209" viewBox="0 0 206 209" fill="none" xmlns="http://www.w3.org/2000/svg">
<path fill-rule="evenodd" clip-rule="evenodd" d="M94.8062 100.272C97.0436 100.089 100.707 99.2948 102.519 101.614C103.561 102.949 103.772 103.567 105.628 104.018C108.622 104.745 112.181 104.751 115.974 104.751C116.395 106.534 119.785 110.966 120.001 119.931C120.031 121.178 120.253 121.331 120.279 122.664C120.332 125.426 119.294 125.213 117.229 127.883C116.793 128.448 116.388 128.984 115.935 129.591C114.8 131.109 113.619 133.018 112.909 134.813C111.982 137.154 112.821 136.208 111.942 136.844C111.942 134.228 109.472 127.32 108.328 124.987C107.751 123.811 107.477 123.767 107.758 122.029C107.964 120.75 107.822 119.563 108.016 118.29C108.323 116.283 108.414 113.097 108.414 110.97L105.642 118.932L94.8062 100.272Z" fill="white"/>
<path fill-rule="evenodd" clip-rule="evenodd" d="M121.014 104.75C125.284 104.75 122.044 105.731 125.402 110.121C126.773 111.912 128.509 113.742 130.338 114.951C129.837 115.626 125.997 118.996 125.298 119.18C125.298 116.725 124.551 113.365 123.953 111.302C123.21 108.74 122.312 106.664 121.014 104.75Z" fill="white"/>
<path fill-rule="evenodd" clip-rule="evenodd" d="M13.9711 147.628C14.4318 148.379 14.906 149.123 15.3935 149.862L15.4086 149.881L15.4057 149.883L15.7371 150.38L15.7397 150.379C16.232 151.102 16.7247 151.818 17.2301 152.533L17.2327 152.531L17.8036 153.325L17.8061 153.323C18.9332 154.839 20.0656 156.302 21.2615 157.769L21.2638 157.767C22.1238 158.806 22.9932 159.827 23.8839 160.841L23.8864 160.838C25.5589 162.715 27.2548 164.519 29.0248 166.306L29.0279 166.303L29.5175 166.798L29.5206 166.795C29.5211 166.804 30.498 167.772 30.5135 167.772L30.511 167.776C30.9181 168.171 31.6023 168.906 32.0241 169.225L32.0221 169.228C32.9227 170.077 34.1632 171.346 35.1105 172.076L35.1077 172.079L35.5689 172.492L35.5717 172.489L36.0955 172.954L36.0927 172.957C37.6971 174.373 39.3463 175.706 40.9527 177.104L41.3816 177.457L41.3844 177.453L41.9261 177.895L41.9238 177.898C42.9769 178.75 44.9447 180.121 45.8246 180.989L46.2589 181.324L46.2617 181.32L46.8119 181.742L46.8094 181.745C47.1325 181.992 47.7142 182.37 47.9747 182.627C50.0264 184.173 52.1062 185.686 54.2089 187.163C54.2288 187.178 54.4779 187.341 54.4706 187.352L54.4776 187.356L54.4808 187.353L54.523 187.382V187.388L55.2331 187.884L55.2348 187.881L55.3504 187.959L55.3479 187.962L55.6679 188.179L55.6659 188.182C55.6753 188.188 55.7257 188.229 55.73 188.222C56.4052 188.69 57.0844 189.152 57.7655 189.611V189.616L57.8205 189.653C58.172 188.179 58.5371 186.321 58.6763 185.51C59.0176 183.523 58.2185 180.487 57.8186 179.082C55.5786 171.213 49.1258 161.807 44.193 155.217C39.6595 149.16 32.5321 139.952 28.2781 133.611C25.2771 129.137 17.4246 118.886 20.467 113.21C23.2192 115.2 21.6156 118.595 32.815 121.171C32.815 116.463 32.9417 108.363 33.7555 104.186C34.3324 101.225 37.0837 93.7142 39.3667 92.0624C39.3667 95.3923 39.2865 98.1663 39.7576 101.131C41.2699 110.648 45.2611 119.693 50.1231 127.717L55.783 136.062C57.3874 138.174 58.4892 139.008 60.7759 140.338C61.9688 141.032 62.3398 141.678 63.3067 142.317C63.3067 139.257 63.0544 137.142 63.0544 134.108H63.5584C64.6651 138.797 67.5879 144.572 70.0092 148.139C72.4734 151.77 75.2029 154.867 77.9967 158.166L84.541 164.394C87.1475 166.982 90.0522 169.181 92.7227 171.741C93.3129 172.307 93.53 172.353 94.1111 172.858C94.5952 173.279 94.9048 173.652 95.368 174.105C95.9613 174.685 96.1427 174.731 96.7479 175.23C101.042 178.775 104 184.239 107.458 187.546C109.965 189.942 116.044 186.001 118.102 184.473L127.819 173.915C128.562 172.876 129.21 171.974 129.985 170.828C134.886 163.58 138.778 155.799 142.598 147.953C147.11 138.688 152.145 128.301 153.227 117.895C153.695 113.399 153.512 112.779 152.461 109.032C151.175 104.452 147.061 95.9833 143.635 92.3691C141.224 89.8256 138.197 87.421 135.956 84.7743C130.786 78.6682 130.436 79.5823 122.307 82.1434C115.912 84.158 113.585 78.7841 107.967 83.4117C107.66 83.6648 106.873 84.3097 106.547 84.4973C105.114 85.3231 104.809 84.9685 103.187 86.4042C101.865 87.5741 99.0445 90.1295 97.4106 90.6533C95.3901 91.3013 94.8518 90.2313 94.3021 92.5602C97.6694 94.786 99.1559 96.6908 104.447 91.3799C107.693 88.1203 108.832 88.0214 112.921 88.857C117.037 89.6983 116.088 88.7691 118.242 85.5941C120.103 86.0221 120.505 87.9304 123.501 87.5707C125.317 87.3527 126.943 85.8897 129.078 85.8429L129.12 85.5527L129.33 85.8429H129.078C128.32 86.9601 127.784 87.5301 127.144 88.9095C125.728 91.9612 125.511 95.0224 118.099 92.2033C112.811 90.1924 106.65 90.3857 106.65 98.0333C107.917 98.3247 110.417 99.0754 111.392 97.9883C111.942 97.3754 112.976 95.0093 113.202 94.0529H113.706C113.743 95.7033 114.612 97.6484 115.218 98.7797C115.583 98.6068 115.878 98.522 116.264 98.3199C118.795 96.9953 119.61 96.4978 123.314 97.2552C131.53 98.9342 127.735 102.698 129.971 106.108C130.94 107.585 133.805 110.361 135.56 110.79C137.428 111.249 138.312 110.722 140.166 110.722C140.166 116.041 137.038 118.408 133.554 121.609C131.808 123.212 126.953 127.29 125.552 128.885C125.195 129.29 125.057 129.502 124.608 129.944C121.63 132.877 119.443 136.392 117.665 140.504L111.942 152.518C111.856 151.504 110.099 147.091 109.603 145.87L104.717 135.27C101.261 128.944 99.8958 126.499 94.8671 120.861C93.1025 118.883 89.9405 116.451 87.8236 114.879C86.3359 113.773 83.9044 112.359 82.9624 110.97L82.6682 110.929L82.9624 110.722V110.97L94.3021 116.444C93.9512 114.957 91.1358 110.437 90.269 108.732C87.8114 103.901 87.2603 100.749 83.6121 96.148C81.2565 93.1773 78.8885 90.6528 76.2214 88.0197C74.5418 86.3614 69.6158 81.7985 69.1024 79.6232C70.0982 79.8859 71.5938 81.3129 72.4884 82.0026C73.6435 82.8929 74.569 83.7666 75.6527 84.6005C76.7336 85.4322 77.8042 86.2973 78.931 87.0862C80.1641 87.9494 81.0961 88.3655 82.4581 89.077C83.4968 87.5463 84.244 86.0592 85.4076 84.5254C86.2282 83.444 86.9882 82.4666 88.0384 81.6494C92.1399 78.4581 90.7982 74.0191 92.7901 69.9205C94.6749 69.487 95.1214 69.8981 95.819 71.4084C97.062 74.0999 98.0464 79.5393 101.862 79.6232C101.666 77.2931 100.553 74.5707 100.35 72.1595C102.393 73.5103 102.78 75.9716 104.223 77.5428C106.098 79.5849 108.748 76.1102 110.927 76.13C113.456 76.1524 116.224 77.0745 119.034 76.9249C126.96 76.5019 130.891 73.2526 133.933 76.3225C134.63 77.0255 135.472 78.0307 136.367 78.3989C141.225 80.3967 141.351 73.6307 141.786 70.5254L142.937 62.7057C140.613 62.7057 136.924 65.1129 135.064 63.763C132.5 61.9024 134.399 61.1348 129.33 59.9689C131.546 56.7011 133.648 59.7203 136.638 59.7203C136.085 58.9062 135.31 58.4478 134.545 57.8057C132.322 55.94 129.872 54.5686 126.558 54.4957C127.054 53.8273 128.046 53.7352 129.04 53.4557C132.842 52.3862 137.01 57.6331 141.686 57.4965C144.287 57.4202 145.12 56.1611 146.717 55.7396C146.859 57.4171 146.766 57.7156 147.473 58.2275C147.553 54.6953 149.741 49.4163 149.741 45.7883C147.433 45.5983 141.669 43.1852 139.747 42.2209C124.683 34.6637 127.066 42.9256 114.868 44.6966C113.845 44.8452 112.85 44.8041 111.825 44.9472C110.992 45.0634 111.135 45.0904 110.314 44.9251L109.17 44.5441C112.747 43.7215 117.666 40.7936 121.094 38.9018C128.765 34.6697 130.461 33.9463 138.223 37.2565C142.455 39.0614 146.991 42.4783 150.864 41.6718C152.923 41.2432 153.306 40.7848 154.352 39.3933C155.348 38.0681 155.804 37.428 156.477 35.7692C156.969 34.5557 157.647 32.7628 157.249 30.9143C156.991 29.7195 155.564 28.5576 154.713 27.6947C153.546 26.5118 153.312 25.5339 152.502 24.1548C149.573 19.167 145.788 13.1691 141.136 9.50232C140.562 9.05013 140.274 8.64392 139.723 8.16122C135.712 4.65082 129.704 2.5336 123.517 1.2713C119.492 0.450104 112.529 -0.83847 108.328 1.41953C102.136 4.74742 100.122 12.3244 97.1269 13.2494C95.3586 13.7953 93.5447 12.8083 93.0421 14.9385C93.0762 17.0455 97.9038 17.2045 98.5059 19.2753C99.4224 22.426 90.701 25.9188 89.7661 26.134C90.0595 27.2179 90.7929 27.3395 91.8363 27.5734C94.7974 28.2364 97.672 28.3495 100.098 29.6169C100.098 31.9833 97.4395 32.2755 96.1444 34.6699C94.7282 37.2877 94.0552 46.6185 94.0479 50.2673C94.0346 56.5412 98.1434 57.3043 97.7414 53.6045C97.6436 52.7051 97.4463 51.8896 97.1518 51.1846C96.4188 49.4319 96.45 48.0223 96.9775 45.9413C98.1655 41.2534 101.61 42.0026 101.61 38.3246C99.2733 38.8621 98.3347 40.8446 96.5701 41.3101C96.647 37.906 98.9549 33.6384 102.857 33.8391C105.573 33.9788 107.735 37.4402 106.708 39.8675C106.342 40.7315 101.21 44.5388 99.8958 49.8296C99.0751 53.1323 102.881 57.7542 97.5779 58.9739C97.5779 63.7282 98.8999 64.9284 99.0899 67.1839C94.9476 65.0196 91.6211 61.5458 88.6998 58.0365C84.3826 52.8502 81.9541 47.2348 81.9541 40.066C78.9491 42.0528 73.8635 48.3879 70.2916 51.1914C69.8545 51.5344 58.0059 56.2045 54.5349 58.2752L47.3834 62.6587C43.5546 65.2297 38.2521 69.324 35.1573 72.9793C30.721 78.2186 26.4212 83.4891 23.3226 89.657C22.6675 90.9612 22.1026 92.0766 21.4741 93.3054C20.1844 95.8277 19.1489 98.5654 18.0179 101.337C12.6652 114.456 12.8103 126.78 13.1545 141.078C13.2055 143.192 13.6174 145.431 13.9711 147.628Z" fill="white"/>
<path fill-rule="evenodd" clip-rule="evenodd" d="M143.397 195.454L145.393 194.208L145.391 194.204C145.704 193.998 146.037 193.785 146.361 193.594L146.359 193.59C146.378 193.577 146.5 193.497 146.503 193.503C146.618 193.395 146.956 193.211 147.136 193.093L147.134 193.089C147.606 192.779 148.099 192.471 148.577 192.161L148.575 192.159L150.235 191.068V191.063C150.958 190.586 151.678 190.101 152.396 189.616V189.611C153.054 189.169 153.803 188.696 154.431 188.222C154.436 188.229 154.486 188.188 154.496 188.182L154.494 188.179L154.814 187.962L154.811 187.959L154.927 187.881L154.928 187.884L155.638 187.388V187.382L155.681 187.353L155.684 187.356L155.691 187.352C155.684 187.342 155.932 187.178 155.953 187.163C158.055 185.686 160.135 184.173 162.187 182.627C162.453 182.365 163.025 181.995 163.352 181.745L163.35 181.742L163.9 181.32L163.903 181.324L164.338 180.989C164.537 180.792 164.788 180.572 165.069 180.34L165.014 179.984C164.278 175.429 159.263 175.098 155.713 173.74C149.434 171.337 151.297 168.191 146.969 167.196C146.972 167.103 146.994 166.952 147.034 166.756C146.934 166.733 146.836 166.701 146.743 166.66L144.128 165.683C143.438 167.304 142.735 168.917 142.015 170.515L137.477 180.216C137.154 180.851 135.682 183.107 137.147 182.428C138.985 181.576 139.669 178.767 142.823 179.481C145.267 180.034 147.774 181.174 150.245 181.377C149.099 183.066 147.491 183.793 146.609 186.246C145.354 189.734 147.534 190.186 145.01 192.878C144.248 193.69 144.108 194.52 143.397 195.454Z" fill="white"/>
<path fill-rule="evenodd" clip-rule="evenodd" d="M120.834 208.213C121.109 208.072 121.383 207.931 121.654 207.788L121.656 207.793L122.362 207.429L122.36 207.426C122.809 207.193 123.268 206.966 123.708 206.721L123.711 206.725L123.803 206.677V206.671L124.215 206.454V206.45C124.994 206.041 125.766 205.631 126.542 205.215L126.544 205.22C127.345 204.787 128.148 204.353 128.946 203.914L128.944 203.912L129.49 203.615L129.489 203.612L129.82 203.433L129.818 203.43L131.478 202.511L131.475 202.506C131.917 202.256 132.367 202.011 132.807 201.76L132.805 201.757C133.777 201.197 134.751 200.646 135.721 200.084L135.719 200.081L136.474 199.64L135.378 195.309H128.826C127.156 198.424 124.71 200.968 122.211 203.457C121.717 203.95 121.487 204.218 120.905 204.656C120.204 205.184 120.232 205.053 119.754 205.758C119.96 206.632 120.464 207.375 120.834 208.213Z" fill="white"/>
<path fill-rule="evenodd" clip-rule="evenodd" d="M79.9385 194.314C82.4894 189.065 80.9505 186.206 86.4514 178.851C86.9047 178.245 87.5493 177.642 87.7502 176.899C89.2858 177.304 92.1468 180.669 93.1908 181.977C94.2606 183.318 96.6743 186.897 97.0742 188.592C94.7839 190.106 92.3999 191.332 89.9681 192.772C88.5646 193.603 87.9881 194.336 85.7447 194.324C83.809 194.314 81.8743 194.314 79.9385 194.314Z" fill="white"/>
<path d="M4.58961 118.412C6.45992 107.881 9.64182 98.2393 14.3337 88.7484C21.7355 73.7749 34.5767 58.2538 61.9696 46.443C66.2326 41.7491 70.9336 37.4265 73.6515 32.1144C79.0977 21.472 83.1078 7.89151 92.0166 1.59491C70.5027 2.45751 47.6467 6.4994 19.6792 14.5303C14.8266 15.9105 10.4332 17.9659 7.66212 22.8831C6.60592 24.5913 6.01602 26.4057 5.60442 28.2721L5.60152 28.2851L5.59872 28.299L5.59561 28.314L5.59222 28.3296L5.58852 28.3466L5.58482 28.3642L5.58092 28.3826V28.3829L5.57691 28.4025H5.57661L5.57242 28.4229H5.57211L5.56782 28.4441L5.56332 28.4665L5.55852 28.4898L5.55341 28.5139H5.55312L5.54801 28.5388L5.53691 28.5915L5.53121 28.619L5.52561 28.6476H5.52531L5.51311 28.7075V28.7077L5.50632 28.7386L5.49982 28.771L5.49332 28.8038L5.48621 28.8379L5.47911 28.8727V28.873L5.47172 28.9084V28.9087L5.46442 28.945V28.9453L5.45641 28.9824L5.44881 29.0207L5.44081 29.0601L5.43291 29.1001V29.1003L5.42442 29.1409V29.1412L5.41621 29.1828L5.40742 29.2256L5.39892 29.269L5.38982 29.3132L5.38101 29.3586L5.37171 29.4048L5.36201 29.4516L5.35271 29.4995L5.34302 29.5482L5.33341 29.5978L5.32352 29.648H5.32321L5.31332 29.6993H5.31301L5.30312 29.7512L5.29262 29.8042L5.28242 29.8578H5.28211L5.27161 29.9122H5.27132L5.26051 29.9677L5.24982 30.0239L5.23872 30.0811L5.22742 30.1387L5.21601 30.1976H5.21581L5.20471 30.2572L5.19312 30.3173H5.19282L5.18121 30.3785L5.16952 30.4406L5.15742 30.5032L5.14522 30.567L5.13271 30.6313L5.12081 30.6965H5.12051L5.10802 30.7623L5.09531 30.8292L5.08251 30.8969L5.06471 30.9919L5.05901 31.0222L5.05331 31.0523L5.04771 31.0826L5.04202 31.1132V31.1135L5.03601 31.1438L5.03041 31.175L5.02471 31.2059L5.01871 31.2368L5.01311 31.2683L5.00742 31.2995L5.00121 31.3312L4.99551 31.3627V31.363L4.98952 31.3947L4.98931 31.395L4.98361 31.4265V31.4267L4.97762 31.4588V31.459L4.97172 31.4908L4.97141 31.4911L4.96571 31.5234V31.5237L4.95982 31.5563V31.5566L4.95351 31.5886V31.5889L4.94762 31.6218V31.622L4.94141 31.6544V31.6549L4.93542 31.6878V31.6881L4.92951 31.7213L4.92921 31.7215L4.92291 31.7544V31.7547L4.91702 31.7882V31.7884L4.91101 31.8216L4.91071 31.8222L4.90452 31.8556V31.8562L4.89832 31.8896V31.8902L4.89201 31.9236V31.9242L4.88581 31.9579V31.9588L4.87962 31.9925V31.9931L4.87302 32.0274V32.028L4.86711 32.0617L4.86681 32.0625L4.86061 32.0968L4.86031 32.0974L4.85432 32.132L4.85411 32.1326L4.84782 32.1671V32.168L4.84132 32.2023V32.2031L4.83511 32.2377L4.83482 32.2386L4.82851 32.2734L4.82832 32.2743L4.82201 32.3094V32.31L4.81581 32.3454L4.81551 32.346L4.80901 32.3812V32.382L4.80251 32.4174V32.4183L4.79591 32.454L4.79572 32.4546L4.78941 32.4906V32.4911L4.78291 32.5271V32.528L4.77612 32.564V32.5648L4.76962 32.6011V32.6017L4.76282 32.6383V32.6388L4.75632 32.6751V32.676L4.74972 32.7125V32.7134L4.74291 32.7502L4.74271 32.7508L4.73641 32.7879L4.73611 32.7885L4.72932 32.8259V32.8265L4.72282 32.8639L4.72251 32.8645L4.71601 32.9022V32.9025L4.70921 32.9404L4.70892 32.941L4.70242 32.979V32.9793L4.69531 33.0175V33.0178L4.68881 33.0564V33.0567L4.68172 33.0952V33.0955L4.67491 33.1343L4.66811 33.1737L4.66101 33.2131L4.65932 33.2242L4.54251 33.8951L4.53321 33.9487L4.52412 34.0029L4.51472 34.057L4.50542 34.1111V34.1114L4.49602 34.1659L4.48672 34.2208H4.48641L4.47732 34.2758L4.46771 34.3308V34.3311L4.45862 34.3867H4.45831L4.44901 34.4422L4.44872 34.4425L4.43932 34.4984V34.4986L4.43002 34.5545V34.5548L4.42042 34.6109L4.41101 34.6676L4.41071 34.6679L4.40141 34.7243L4.40112 34.7246L4.39141 34.7815V34.7818L4.38212 34.8388L4.38181 34.8391L4.37222 34.8966L4.36282 34.9542L4.36251 34.9545L4.35291 35.0123V35.0126L4.34351 35.0707L4.34302 35.071L4.33362 35.1291H4.33331L4.32372 35.1877L4.32342 35.188L4.31412 35.2464V35.2467L4.30412 35.3057V35.3059L4.29421 35.3652L4.29391 35.3655L4.28461 35.4247H4.28432L4.27471 35.4845H4.27441L4.26472 35.5446L4.25481 35.6047L4.24461 35.6651V35.6654L4.23502 35.726L4.22482 35.787L4.21511 35.8479L4.21481 35.8482L4.20492 35.9092L4.19472 35.9707V35.971L4.18511 36.0325L4.18481 36.0327L4.17491 36.0945H4.17461L4.16471 36.1569H4.16441L4.15472 36.2193H4.15452L4.14452 36.2819H4.14432L4.13461 36.3448H4.13432L4.12411 36.4075L4.11391 36.471L4.10401 36.5342V36.5345L4.09351 36.598L4.08331 36.662L4.07342 36.7264H4.07311L4.06291 36.7907L4.05271 36.8551L4.04251 36.9197V36.92L4.03201 36.9849L4.02181 37.0498V37.0501L4.01161 37.1153H4.01131L4.00111 37.1808L3.99091 37.2465L3.98042 37.3129L3.96992 37.3789L3.95972 37.4453L3.94921 37.5119L3.93871 37.5785L3.92831 37.6457V37.6459L3.91782 37.7128L3.90762 37.7803L3.89912 37.8353L3.78881 38.5539L3.74401 38.8484L3.64391 39.5185L3.61362 39.7237L3.60961 39.7512L3.60571 39.7787L3.60172 39.8062L3.59751 39.834L3.59351 39.8618L3.58952 39.8893L3.58552 39.9168V39.9171L3.58131 39.9446H3.58102L3.57732 39.9723H3.57701L3.57342 40.0001L3.57311 40.0004L3.56941 40.0279H3.56911L3.56512 40.0557H3.56491L3.56091 40.0835L3.55692 40.1112L3.55302 40.139V40.1396L3.54871 40.1674L3.54472 40.1951L3.54082 40.2232L3.53681 40.251L3.53252 40.279H3.53232L3.52862 40.3074H3.52831L3.52461 40.3352L3.52431 40.3355L3.52061 40.3632L3.52042 40.3635L3.51611 40.3913V40.3916L3.51212 40.4199L3.50822 40.448L3.50421 40.4761L3.49992 40.5044L3.49602 40.5325H3.49571L3.49201 40.5611H3.49171L3.48801 40.5892H3.48782L3.48351 40.6175L3.47952 40.6459L3.47562 40.6745L3.47161 40.7028L3.46732 40.7312L3.45941 40.7882H3.45911L3.45541 40.8168H3.45522L3.45091 40.8454L3.44691 40.8738V40.874L3.44302 40.9024L3.43902 40.9313L3.43472 40.9599L3.43082 40.9886H3.43051L3.42651 41.0172L3.42262 41.0461L3.41831 41.0747V41.075L3.41431 41.1036L3.41042 41.1323V41.1326L3.40642 41.1615H3.40611L3.40192 41.1904L3.39791 41.219V41.2193L3.39391 41.2482V41.2485L3.39001 41.2771V41.2774L3.38571 41.3063L3.38152 41.3352L3.37752 41.3644L3.37351 41.3933V41.3936L3.36932 41.4225L3.36531 41.452L3.36102 41.4809L3.35712 41.5101L3.35281 41.5393L3.34261 41.615L3.32761 41.7227V41.723L3.31261 41.8307L3.29752 41.9393L3.28252 42.0479V42.0482L3.26752 42.1573H3.26721L3.25221 42.2667V42.267L3.23721 42.3764V42.3767L3.22211 42.4867V42.487L3.20712 42.5969V42.5975L3.19212 42.7081L3.19182 42.7083L3.17712 42.8195L3.17681 42.8197L3.16181 42.9311V42.9314L3.14701 43.0428V43.0434L3.13201 43.1551V43.1554L3.11701 43.2679L3.11671 43.2682L3.10201 43.381L3.10172 43.3813L3.08672 43.4944V43.4947L3.07162 43.6081V43.6083L3.05662 43.7223V43.7226L3.04161 43.8365L3.04131 43.8368L3.02661 43.9513L3.02631 43.9516L3.01151 44.0664L3.01122 44.0667L2.99622 44.1818V44.1821L2.98122 44.2977V44.298L2.96622 44.4137V44.4139L2.95122 44.5302V44.5305L2.93642 44.647V44.6472L2.92142 44.7643V44.7646L2.90642 44.8819L2.89131 44.9996L2.87631 45.1178L2.86131 45.2363V45.2366L2.84631 45.355V45.3553L2.83151 45.4741L2.83121 45.4744L2.81651 45.594H2.81622L2.80151 45.7136L2.78651 45.8341L2.77171 45.9543H2.77142L2.75671 46.0753L2.74201 46.1964L2.72721 46.318L2.71221 46.4396L2.69752 46.5618L2.68272 46.6842H2.68241L2.66772 46.807V46.8072L2.65302 46.9303L2.63821 47.0536L2.60841 47.3013V47.3016L2.59371 47.426L2.57922 47.5505H2.57902L2.56481 47.6755V47.6758L2.55012 47.8008V47.8011L2.53532 47.9266L2.52061 48.0528L2.50611 48.1789V48.1792L2.49142 48.3056V48.3059L2.47691 48.4326L2.46221 48.5599L2.44772 48.6875L2.43331 48.8153L2.41911 48.9434V48.9437L2.40462 49.0721L2.39021 49.2008L2.37151 49.3681L2.36922 49.3848V49.3851L2.36752 49.4021L2.36552 49.4188V49.4191L2.36382 49.4358L2.36182 49.4531L2.36012 49.4698L2.35812 49.4868L2.35641 49.5038V49.5041L2.35452 49.5208L2.35252 49.5379L2.35052 49.5549V49.5551L2.34882 49.5719H2.34851L2.34682 49.5889L2.34312 49.6229V49.6232L2.34142 49.6399H2.34112L2.33942 49.6572L2.33772 49.6742H2.33721L2.33552 49.6909V49.6915L2.33182 49.7252V49.7255L2.32812 49.7595L2.32642 49.7765H2.32611L2.32442 49.7938L2.32272 49.8108H2.32242L2.32041 49.8278L2.31872 49.8451H2.31851L2.31682 49.8621L2.31512 49.8791H2.31481L2.31312 49.8964L2.31142 49.9134H2.31111L2.30942 49.9305V49.9307L2.30772 49.9477V49.948L2.30572 49.9647V49.965L2.30371 49.982L2.30202 49.9993H2.30171L2.30001 50.0163L2.29642 50.0506V50.0509L2.29472 50.0679H2.29441L2.29272 50.0849L2.29102 50.1022L2.28902 50.1195L2.28702 50.1365L2.28501 50.1538L2.28332 50.1711L2.28162 50.1884H2.28131L2.27962 50.2054L2.27792 50.2227L2.27592 50.24L2.27422 50.2573L2.27201 50.2743L2.27032 50.2919L2.26862 50.3089H2.26832L2.26662 50.3259V50.3262L2.26492 50.3435L2.26292 50.3607L2.26122 50.3778L2.25951 50.3953L2.25751 50.4123L2.25552 50.4296L2.25352 50.4469L2.25182 50.4642L2.23882 50.5855L2.23711 50.6023L2.23541 50.6187L2.23341 50.6357L2.23171 50.6522L2.23001 50.6689L2.22832 50.6859L2.22662 50.7023L2.22491 50.719L2.15261 51.409L2.15092 51.426L2.14922 51.443L2.14751 51.4597L2.14581 51.4767L2.13682 51.5615L2.13512 51.5785L2.13342 51.5955L2.13171 51.6122L2.13001 51.6295L2.12831 51.6463L2.12631 51.6633L2.10162 51.9036L2.00842 52.8354L1.96162 53.3133L1.88021 54.1671L1.83832 54.6235L1.75211 55.5731L1.72401 55.8977L1.72231 55.9147L1.72092 55.932L1.71922 55.949L1.71781 55.966L1.71642 55.9833L1.71501 56.0003L1.71352 56.0173L1.70901 56.0689L1.70761 56.0862L1.70592 56.1032L1.70481 56.1156L1.70391 56.1278H1.70361L1.70281 56.1403L1.70161 56.1528L1.70052 56.165L1.69971 56.1774H1.69942L1.69852 56.1899H1.69821L1.69742 56.2021L1.69631 56.2146L1.69541 56.2268H1.69511L1.69431 56.2392H1.69402L1.69312 56.2517L1.69202 56.2639L1.69122 56.2764H1.69092L1.68971 56.2888H1.68951L1.68861 56.3007L1.68752 56.3132L1.68661 56.3257H1.68632L1.68552 56.3379H1.68521L1.68442 56.3504L1.68321 56.3625L1.68241 56.375H1.68211L1.68121 56.3875H1.68102L1.68011 56.3997L1.67902 56.4122L1.67812 56.4246H1.67781L1.67702 56.4368L1.67581 56.4493L1.67501 56.4618H1.67471L1.67361 56.4739L1.67242 56.4864L1.67132 56.4989L1.67052 56.5111H1.67021L1.66931 56.5236L1.66821 56.536L1.66731 56.5482H1.66711L1.66621 56.5607L1.66512 56.5732L1.66422 56.5853H1.66392L1.66312 56.5978L1.66202 56.6103L1.66112 56.6228H1.66081L1.66001 56.635L1.65881 56.6474L1.65771 56.6599H1.65742L1.65662 56.6721L1.65541 56.6846L1.65462 56.697L1.65351 56.7095L1.65231 56.7217L1.65151 56.7342L1.65031 56.7464L1.64951 56.7588H1.64922L1.64841 56.7713L1.64722 56.7835L1.64642 56.796L1.64522 56.8084L1.64411 56.8209L1.64321 56.8334L1.64211 56.8459L1.64101 56.858L1.63982 56.8705L1.63902 56.883L1.63792 56.8955L1.63641 56.913L1.63502 56.9303L1.63361 56.9476L1.63222 56.9649L1.63081 56.9822L1.62942 56.9995L1.61752 57.1452L1.61581 57.1645L1.61431 57.1837L1.61262 57.203L1.61121 57.2226L1.60921 57.2416L1.60781 57.2611L1.60612 57.2804L1.60471 57.3C1.57661 57.6418 1.54802 57.9857 1.52112 58.3312L1.51971 58.3508L1.51801 58.3703L1.51652 58.3902L1.50891 58.4914L1.50101 58.5945L1.49301 58.6977H1.49271L1.48512 58.8009L1.47691 58.9041L1.46922 59.0076L1.46131 59.111V59.1113L1.45361 59.2148H1.45332L1.44572 59.3185L1.44541 59.3188L1.43801 59.4228H1.43771L1.43011 59.5269H1.42982L1.42242 59.6309L1.41451 59.7352L1.40711 59.8395H1.40681L1.39951 59.9444L1.39182 60.049L1.38441 60.1536H1.38422L1.37682 60.2585H1.37652L1.36942 60.3634L1.36912 60.3639L1.36182 60.4688H1.36151L1.35442 60.574L1.34672 60.6791V60.6794L1.33971 60.7849H1.33942L1.33202 60.8903V60.8906L1.32491 60.9961L1.31751 61.1018H1.31731L1.31052 61.2081H1.31021L1.30341 61.3138H1.30312L1.29601 61.4201L1.28892 61.5264L1.28181 61.6327H1.28152L1.27471 61.7396L1.26772 61.8459H1.26742L1.26061 61.9527L1.25381 62.0596L1.24671 62.1665L1.23991 62.2733L1.23312 62.3808H1.23281L1.22631 62.4879L1.21922 62.5956L1.21272 62.7028V62.7031L1.20612 62.8108H1.20592L1.19911 62.9182L1.19251 63.0262L1.18601 63.1342H1.18571L1.17951 63.2422V63.2425L1.17301 63.3502V63.3505L1.16621 63.4588L1.15991 63.5671L1.15341 63.6756L1.14722 63.7842H1.14691L1.14101 63.8931H1.14072L1.13441 64.0016L1.12821 64.1108L1.12171 64.2196L1.11572 64.3287V64.329L1.10951 64.4379L1.10322 64.5473V64.5476L1.09731 64.657L1.09112 64.7664L1.08511 64.8761L1.07922 64.9858L1.07321 65.0958L1.06721 65.2058L1.06161 65.3158L1.04491 65.6222L1.04401 65.6381L1.04292 65.6534L1.04231 65.669L1.04151 65.6846L1.04061 65.7004L1.00832 66.3567L1.00742 66.3722L1.00601 66.4037L1.00521 66.4193L1.00381 66.4508L1.00291 66.4666L1.00231 66.4822L1.00152 66.4978L1.00062 66.5134L1.00011 66.5293L0.999214 66.5449L0.998413 66.5605L0.997818 66.5763L0.997017 66.5922L0.996414 66.6078L0.995514 66.6234L0.968018 67.1929L0.924416 68.1955L0.902611 68.7173L0.861511 69.8042L0.844215 70.2909L0.811317 71.3093L0.793411 71.9177L0.766815 72.9509L0.754616 73.5017L0.754318 73.5181L0.754013 73.5348L0.753517 73.5516L0.753212 73.568L0.752914 73.5847L0.752617 73.6012L0.751518 73.6346L0.751213 73.651L0.750916 73.6678L0.750618 73.6842L0.749214 73.7508L0.748917 73.7673L0.735016 74.4663L0.734711 74.483L0.734512 74.4997L0.734215 74.5165L0.733917 74.5332L0.733612 74.5496L0.733315 74.5666L0.724518 75.1166L0.710114 76.1895L0.704414 76.8199V76.8352L0.704117 76.8505V76.8508V76.8661L0.703812 76.8814V76.897L0.703316 76.9123V76.9126V76.9279L0.703018 76.9432V76.9588V76.9591L0.702713 76.9741V76.9744V76.9897V77.005L0.702415 77.0203V77.0206V77.0359V77.0362L0.702118 77.0515V77.0668V77.0671L0.701912 77.0821V77.0824V77.0974V77.0977L0.701614 77.1133V77.1286V77.1289V77.1439V77.1442L0.701317 77.1595V77.1751L0.701012 77.1904V77.1907V77.2057V77.206V77.2213L0.700714 77.2366V77.2369V77.2522V77.2525L0.700417 77.2675V77.2678V77.2831V77.2834V77.2984V77.2987L0.700218 77.3137V77.314V77.3296L0.699913 77.3449V77.3452V77.3602V77.3605V77.3758L0.699615 77.3911V77.3916V77.4067V77.407V77.4223L0.699318 77.4376V77.4379V77.4529V77.4532L0.699013 77.4687V77.4841V77.4843V77.4996L0.698715 77.515V77.5152V77.5303V77.5305V77.5461L0.698517 77.5614V77.5617V77.577V77.5923V77.6076V77.6082L0.698212 77.6235V77.6388V77.6391V77.6544L0.697914 77.6697V77.67V77.6856V77.7009V77.7012V77.7165L0.697617 77.7318V77.7474V77.763L0.697311 77.7786V77.7939V77.8095L0.695915 78.5462L0.695312 79.4941L0.698517 80.0925V80.1095L0.698715 80.1265V80.1438V80.1611V80.1781H0.699013V80.1954V80.2124V80.2294H0.699318V80.2467V80.2637V80.264V80.2807V80.281V80.298V80.2983H0.699615V80.3153V80.3323V80.3496H0.699913V80.3666V80.3836V80.3839V80.4009V80.4012V80.4179V80.4182H0.700218V80.4355V80.4525V80.4695H0.700417V80.4868V80.5038V80.5041V80.5208V80.5211L0.700714 80.5384V80.5554V80.5724L0.701012 80.5897V80.6067V80.624L0.701317 80.6413V80.6583V80.6753V80.6756L0.701614 80.6926V80.7099V80.7269L0.701912 80.7442V80.7612V80.7615V80.7782V80.7785L0.702118 80.7958V80.8128V80.8298H0.702415V80.8471V80.8474V80.8644L0.702713 80.8817V80.8987V80.9157L0.703018 80.916V80.9333V80.9503L0.703316 80.9673V80.9676V80.9848V81.0019H0.703812V81.0189V81.0191V81.0364H0.704117V81.0534V81.0705H0.704414V81.088V81.105H0.704712V81.122V81.1396L0.705017 81.1566V81.1742L0.705315 81.1912L0.705513 81.2167L0.705818 81.2422V81.2677H0.706116V81.2933L0.706413 81.3188L0.706711 81.3443L0.707016 81.3698L0.707214 81.3953L0.707512 81.4208L0.707817 81.4463L0.708115 81.4718V81.4973H0.708412V81.5229H0.708717V81.5484L0.709015 81.5487V81.5739L0.709213 81.5742V81.5994L0.709511 81.5997V81.6252H0.709816V81.6507H0.710114V81.6762H0.710411V81.7017H0.710716L0.710915 81.7272L0.711212 81.7527V81.753L0.711517 81.7785L0.711815 81.8041L0.712112 81.8296L0.712418 81.8551L0.712616 81.8806L0.712914 81.9064H0.713211V81.9319H0.713516V81.9574H0.713814L0.714111 81.9829L0.714317 82.0087L0.714615 82.0342L0.714912 82.0597L0.715218 82.0853H0.715515L0.715813 82.111L0.716011 82.1366L0.716316 82.1621L0.716614 82.1879L0.716911 82.2134H0.717216L0.717514 82.2389L0.717712 82.2647L0.718018 82.2902L0.718613 82.3157V82.316L0.718918 82.3415L0.719215 82.367L0.719414 82.3928H0.720016L0.720314 82.4183L0.720612 82.4438V82.4441L0.720917 82.4696H0.721115L0.721413 82.4951V82.4954L0.721718 82.5209L0.722015 82.5465H0.722313L0.722618 82.5722L0.722816 82.5978L0.723412 82.6236L0.723717 82.6491L0.724014 82.6749L0.724518 82.7004L0.724815 82.7262L0.725418 82.7517L0.725716 82.7775L0.726212 82.803L0.726517 82.8288L0.726814 82.8458L0.727112 82.8625L0.727417 82.879L0.727715 82.896L0.727913 82.9127L0.728218 82.9294L0.728516 82.9461L0.728813 82.9629L0.729111 82.9796L0.729416 82.9966L0.729614 83.0133L0.729912 83.03L0.739815 83.5167L0.740112 83.5338L0.741318 83.5842L0.741516 83.6009L0.741814 83.6177L0.742111 83.6347L0.742714 83.6514L0.743011 83.6681L0.743217 83.6851L0.743515 83.7019L0.743813 83.7186L0.744415 83.7356L0.744713 83.7523L0.745018 83.769L0.745216 83.786L0.745811 83.8028L0.746117 83.8195L0.746414 83.8365L0.746712 83.8532L0.747215 83.8699L0.747513 83.887L0.747818 83.9037L0.760315 84.5126L0.760513 84.5282L0.761116 84.544L0.761414 84.5596L0.761711 84.5758L0.762215 84.5914L0.762512 84.6072L0.762817 84.6228L0.763412 84.639L0.763718 84.6546L0.764214 84.6705L0.764511 84.686V84.6863L0.764816 84.7022L0.765411 84.7178V84.7181L0.765617 84.7337L0.766212 84.7493V84.7495L0.766518 84.7651L0.767113 84.781V84.7813L0.767311 84.7969L0.767914 84.8127L0.768517 84.8283V84.8286L0.769012 84.8445L0.769318 84.8601V84.8604L0.769615 84.876L0.770218 84.8918L0.770515 84.9077V84.908L0.771011 84.9236L0.771317 84.9392V84.9395L0.771912 84.955L0.772415 84.9712L0.772713 84.9868V84.9871L0.773315 85.0027L0.773613 85.0185L0.774117 85.0344V85.0347L0.774414 85.0503L0.775017 85.0662L0.775314 85.0818V85.082L0.775818 85.0979L0.776115 85.1138L0.776718 85.1294L0.777313 85.1453L0.777512 85.1614L0.778114 85.177L0.778412 85.1929L0.779015 85.2087L0.779213 85.2246L0.779816 85.2405L0.780113 85.2564L0.780716 85.272L0.781212 85.2881L0.781517 85.304L0.782112 85.3196L0.782417 85.3355L0.782913 85.3516L0.783211 85.3672L0.783813 85.3831L0.784615 85.399L0.784912 85.4145L0.785515 85.4307L0.785812 85.4466L0.786316 85.4622L0.786613 85.478L0.787216 85.4942L0.787514 85.5098L0.788017 85.5257L0.807915 86.2312L0.808212 86.2448L0.808716 86.2584L0.809013 86.272L0.809616 86.2856L0.809914 86.2992L0.810417 86.3128L0.810715 86.3265L0.811317 86.3401L0.811615 86.3537L0.812111 86.3673L0.812714 86.3809L0.813011 86.3945L0.813515 86.4081L0.813812 86.422L0.814415 86.4356L0.814713 86.4492L0.815216 86.4628L0.815811 86.4764L0.816116 86.49L0.817017 86.5036L0.817215 86.5172L0.817818 86.5308L0.818413 86.5444L0.818718 86.558L0.819214 86.5716L0.819817 86.5853L0.820114 86.5989V86.5991L0.820618 86.613L0.821213 86.6266L0.821518 86.6402L0.822113 86.6539L0.822617 86.6675L0.822914 86.6811L0.823517 86.6947L0.824013 86.7083L0.824318 86.7219L0.824913 86.7355L0.825516 86.7491L0.825714 86.7627V86.763L0.826317 86.7766L0.826912 86.7902L0.827415 86.8041L0.827713 86.8177L0.828316 86.8313L0.828911 86.8449L0.829117 86.8585L0.829712 86.8721L0.830315 86.8857V86.886L0.830612 86.8993V86.8996L0.831116 86.9132L0.831711 86.9268L0.832314 86.9404L0.832512 86.954L0.833412 86.9676L0.834015 86.9815L0.834213 86.9951L0.834816 87.0087L0.835411 87.0224V87.0226L0.835915 87.036V87.0362L0.836212 87.0499L0.836815 87.0635L0.837418 87.0771L0.837616 87.0907L0.838211 87.1043L0.838814 87.1185L0.839111 87.1329L0.839615 87.1474L0.840218 87.1615L0.840813 87.176L0.841011 87.1902L0.841614 87.2046L0.842216 87.2188L0.842712 87.233L0.843018 87.2474L0.843613 87.2619L0.844215 87.2761L0.845612 87.3189L0.846115 87.3333L0.866615 87.892L0.867111 87.9065L0.868515 87.9496L0.869118 87.964L0.869713 87.9782L0.870216 87.9927L0.870811 88.0068L0.871414 88.0213L0.904015 88.7968C0.918115 89.1228 0.932017 89.4482 0.947617 89.7751L0.985611 90.5404L0.986511 90.5563L0.987312 90.5725L0.987915 90.5886L0.988716 90.6045L0.989616 90.6207L0.990417 90.6368L0.991318 90.6527L0.992111 90.6688L0.992714 90.6847L0.993515 90.7009L0.994415 90.7167L0.995514 90.7329L0.996414 90.7488L0.997215 90.7649L0.998116 90.7811L0.998711 90.797L0.999512 90.8128L1.00041 90.8293L1.00121 90.8452L1.00211 90.861L1.00291 90.8772L1.00381 90.8933L1.00462 90.9092L1.00521 90.9254L1.00601 90.9413L1.00691 90.9574L1.00771 90.9736L1.00861 90.9894L1.00941 91.0053L1.01031 91.0218L1.01141 91.0376L1.01231 91.0535L1.01311 91.0699L1.01402 91.0858L1.01482 91.1017L1.01572 91.1179L1.01621 91.134L1.01652 91.1402C1.02302 91.2828 1.03152 91.4248 1.03982 91.5677L1.08202 92.2942L1.14612 93.3351L1.19511 94.0823C1.21861 94.4341 1.24382 94.7856 1.26942 95.1382L1.32291 95.8579C1.35131 96.2299 1.38101 96.6018 1.41171 96.9742L1.46501 97.6163C1.50071 98.0364 1.53842 98.457 1.57722 98.878L1.62482 99.4013C1.66622 99.8378 1.70991 100.275 1.75411 100.713L1.80541 101.221L1.82442 101.41L1.82922 101.44C1.97632 102.836 2.13871 104.235 2.31851 105.637L4.11652 116.167C4.27472 116.94 4.43171 117.686 4.58961 118.412ZM9.29282 89.6495C8.67632 74.1533 9.73872 58.4418 12.2749 43.1494C12.2749 42.7701 12.6873 40.6206 12.6896 40.6087H12.6961L12.7392 40.3476H12.744L12.8812 39.5454H12.8951C12.9838 39.0426 13.0827 38.5153 13.1888 38.015L13.1859 38.0145C13.3501 37.1805 13.5054 36.3431 13.6638 35.5075H13.6851L13.8946 34.4076H14.0312C14.4301 33.1108 14.9709 31.8698 15.6881 30.7155C18.4278 25.9451 22.6647 23.7094 27.7878 22.2581C44.5204 17.4735 61.6204 13.5764 78.95 11.7432C77.7305 14.8911 76.4246 17.0406 76.4198 17.0412C60.4159 18.9631 44.6363 22.6362 29.1543 27.0602H29.1444C25.2666 28.1575 21.964 29.6803 19.9264 33.3523C19.1795 34.5542 18.7257 35.927 18.4195 37.3018L18.4156 37.3463L18.4187 37.3469C18.2804 38.0385 18.148 38.7322 18.0159 39.4258H18.0034L17.7919 40.5532H17.7888C17.7551 40.7244 17.7265 40.9044 17.6961 41.0779L17.6907 41.077L16.9792 45.348H16.9733C15.0764 57.0772 14.1163 68.395 14.1134 80.2821C11.7621 83.1151 10.5506 85.9707 9.71121 88.8005L9.29282 89.6495Z" fill="#BA1319"/>
<path d="M144.15 4.88141L145.408 6.00143C149.51 10.0869 154.494 16.7359 157.169 22.1294C160.177 25.4187 165.868 30.0224 163.271 38.621C163.271 42.9136 160.374 47.0039 158.663 49.8278C157.856 51.1593 158.098 51.3347 157.788 52.9096C157.246 55.6649 155.347 67.5991 153.492 69.7582C152.833 70.5253 152.194 70.9576 151.191 71.4017C147.568 73.0056 148.823 75.406 147.595 78.5045C146.619 80.9687 146.93 81.7709 145.791 83.4856L151.645 90.6989C154.01 93.0834 153.906 94.4179 155.734 97.3773C158.636 102.076 161.392 110.453 161.392 118.029C161.392 122.513 161.571 128.146 160.069 132.031C159.005 134.782 158.147 137.048 157.017 139.829L150.609 153.924C149.827 156.091 149.946 154.98 151.741 156.274L154.198 158.354C155.289 159.453 154.408 159.653 155.468 160.716C156.076 161.326 157.184 162.074 157.966 162.556C159.937 163.773 161.736 164.492 163.845 165.546C166.016 166.63 167.315 167.773 168.695 169.573C169.201 170.233 169.547 171.662 169.832 173.482L170.146 173.198V173.198L170.642 172.746L170.642 172.746L171.136 172.292V172.292L171.627 171.836L171.627 171.836L172.117 171.378V171.378L172.604 170.918L172.604 170.918L173.089 170.456H173.089L173.571 169.992L173.572 169.992L174.052 169.527V169.526L174.529 169.059V169.059L175.005 168.589L175.005 168.589L175.478 168.118V168.118L175.948 167.645L175.948 167.644L176.415 167.169L176.415 167.169L176.88 166.692V166.692L177.341 166.213L177.342 166.213L177.801 165.732L178.256 165.25L178.709 164.765V164.765L179.159 164.279V164.279L179.606 163.791V163.791L180.049 163.301L180.489 162.809L180.926 162.316L181.359 161.82C181.647 161.49 181.932 161.158 182.215 160.825V160.825L182.638 160.324L183.057 159.822L183.472 159.318V159.318L183.884 158.813L184.291 158.306H184.291L184.695 157.797L185.094 157.286L185.49 156.774L185.881 156.26L186.268 155.745L186.651 155.228L187.03 154.709L187.404 154.189C187.528 154.015 187.651 153.841 187.773 153.667L188.139 153.144C188.26 152.969 188.38 152.794 188.499 152.619L188.855 152.092L188.884 152.049C189.105 151.719 189.324 151.387 189.539 151.054L189.548 151.041C192.066 147.159 194.197 143.155 195.817 139.048L195.842 138.985L195.867 138.922L195.892 138.86H195.892C196.279 137.875 196.644 136.893 196.991 135.914H196.992L197.08 135.663H197.08L197.102 135.601H197.102L197.145 135.476H197.146L197.167 135.413L197.189 135.351H197.189L197.211 135.288H197.211L197.233 135.226L197.254 135.163L197.275 135.101V135.101L197.297 135.038L197.317 134.98L197.358 134.862L197.404 134.726L197.418 134.685L197.478 134.508L197.49 134.473L197.538 134.331L197.575 134.22L197.597 134.155L197.656 133.978L197.66 133.966L197.714 133.801L197.743 133.713L197.826 133.46L197.83 133.448L197.887 133.271L197.908 133.206L197.944 133.095L197.99 132.953L198.001 132.918L198.057 132.742L198.071 132.7L198.113 132.566L198.15 132.447L198.169 132.389L198.224 132.213L198.229 132.194L198.279 132.036L198.308 131.942L198.333 131.86L198.386 131.688L198.387 131.683L198.441 131.507L198.463 131.436L198.539 131.183L198.548 131.155L198.601 130.978L198.615 130.93L198.653 130.802L198.69 130.678L198.705 130.626L198.757 130.45L198.764 130.425L198.809 130.273L198.838 130.172L198.86 130.097L198.911 129.921L198.911 129.919L198.961 129.744L198.984 129.667L199.012 129.568L199.055 129.414L199.062 129.392L199.111 129.216L199.126 129.161L199.16 129.04L199.197 128.909L199.209 128.864L199.258 128.687L199.266 128.656L199.306 128.511L199.336 128.403L199.355 128.335L199.403 128.159L199.405 128.151L199.45 127.983L199.473 127.898L199.497 127.806L199.54 127.645L199.544 127.63L199.591 127.454L199.607 127.393L199.637 127.278L199.673 127.14L199.683 127.102L199.729 126.925L199.739 126.888L199.775 126.749L199.804 126.635L199.82 126.573L199.865 126.396L199.869 126.382L199.909 126.22L199.933 126.129L199.954 126.044L199.996 125.877L199.998 125.868L200.042 125.691L200.059 125.624L200.086 125.515L200.121 125.371L200.129 125.339L200.172 125.162L200.183 125.118L200.215 124.986L200.244 124.865L200.258 124.81L200.3 124.633L200.305 124.612L200.342 124.457L200.365 124.359L200.384 124.28L200.425 124.107L200.426 124.104L200.467 123.927L200.485 123.854L200.508 123.751L200.511 123.737L200.515 123.722L200.518 123.708L200.522 123.694L200.525 123.68L200.532 123.651L200.535 123.637C200.59 123.4 200.644 123.163 200.698 122.926L200.701 122.912L200.704 122.897L200.708 122.883L200.711 122.869L200.714 122.855L200.717 122.84C201.259 120.761 201.745 118.594 202.241 116.167L204.04 105.636C204.219 104.235 204.382 102.836 204.529 101.44L204.534 101.409L204.553 101.221L204.604 100.713C204.648 100.275 204.692 99.8375 204.733 99.401L204.781 98.8777C204.82 98.4567 204.858 98.0361 204.893 97.616L204.947 96.9739C204.977 96.6015 205.007 96.2296 205.035 95.8576L205.089 95.1379C205.114 94.7853 205.139 94.4338 205.163 94.082L205.212 93.3348L205.276 92.2939L205.318 91.5674C205.327 91.4245 205.335 91.2825 205.342 91.1399L205.342 91.1337L205.343 91.1176L205.343 91.1014L205.344 91.0855L205.345 91.0696L205.346 91.0532L205.347 91.0373L205.348 91.0215L205.348 91.005L205.349 90.9891L205.35 90.9733L205.351 90.9571L205.352 90.941L205.353 90.9251L205.354 90.9089L205.354 90.893L205.355 90.8769L205.356 90.8607L205.357 90.8449L205.358 90.829L205.359 90.8125L205.36 90.7967L205.36 90.7808L205.361 90.7646L205.362 90.7485L205.363 90.7326L205.364 90.7164L205.364 90.7006L205.365 90.6844L205.366 90.6685L205.367 90.6524L205.368 90.6365L205.369 90.6204L205.369 90.6042L205.37 90.5883L205.371 90.5722L205.372 90.556L205.373 90.5401L205.411 89.7748C205.426 89.4479 205.44 89.1225 205.454 88.7965L205.487 88.021L205.487 88.0065L205.488 87.9924L205.489 87.9779L205.489 87.9637L205.49 87.9493L205.491 87.9062L205.492 87.8917L205.512 87.333L205.513 87.3186L205.514 87.2758L205.515 87.2616L205.515 87.2471L205.515 87.2327L205.516 87.2185L205.517 87.2043L205.517 87.1899L205.517 87.1757L205.518 87.1612L205.519 87.1471L205.519 87.1326L205.519 87.1182L205.52 87.104L205.521 87.0904L205.521 87.0768L205.521 87.0632L205.522 87.0496L205.522 87.0359V87.0357L205.523 87.0223V87.0221L205.523 87.0084L205.524 86.9948L205.524 86.9812L205.525 86.9673L205.525 86.9537L205.526 86.9401L205.526 86.9265L205.527 86.9129L205.527 86.8993V86.899L205.528 86.8857V86.8854L205.528 86.8718L205.529 86.8582L205.529 86.8446L205.53 86.831L205.53 86.8174L205.531 86.8038L205.531 86.7899L205.532 86.7763L205.532 86.7627V86.7624L205.533 86.7488L205.533 86.7352L205.534 86.7216L205.534 86.708L205.535 86.6944L205.535 86.6808L205.536 86.6672L205.536 86.6536L205.537 86.6399L205.537 86.6263L205.538 86.6127L205.538 86.5988V86.5986L205.538 86.585L205.539 86.5713L205.54 86.5577L205.54 86.5441L205.54 86.5305L205.541 86.5169L205.541 86.5033L205.542 86.4897L205.542 86.4761L205.543 86.4625L205.543 86.4489L205.544 86.4353L205.544 86.4217L205.545 86.4078L205.545 86.3942L205.545 86.3806L205.546 86.367L205.547 86.3534L205.547 86.3398L205.547 86.3262L205.548 86.3125L205.548 86.2989L205.549 86.2853L205.549 86.2717L205.549 86.2581L205.55 86.2445L205.55 86.2309L205.57 85.5254L205.571 85.5095L205.571 85.4939L205.572 85.4777L205.572 85.4619L205.572 85.4463L205.573 85.4304L205.573 85.4142L205.574 85.3987L205.574 85.3828L205.575 85.3669L205.575 85.3513L205.576 85.3352L205.576 85.3193L205.577 85.3037L205.577 85.2878L205.578 85.2717L205.578 85.2561L205.578 85.2402L205.579 85.2243L205.579 85.2084L205.58 85.1926L205.58 85.1767L205.581 85.1611L205.581 85.145L205.581 85.1291L205.582 85.1135L205.582 85.0976L205.583 85.0817V85.0815L205.583 85.0659L205.584 85.05L205.584 85.0344V85.0341L205.585 85.0182L205.585 85.0024L205.585 84.9868V84.9865L205.586 84.9709L205.586 84.9547L205.587 84.9392V84.9389L205.587 84.9233L205.588 84.9077V84.9074L205.588 84.8915L205.589 84.8757L205.589 84.8601V84.8598L205.589 84.8442L205.59 84.8283V84.828L205.59 84.8124L205.591 84.7966L205.591 84.781V84.7807L205.591 84.7648L205.592 84.7492V84.749L205.592 84.7334L205.593 84.7178V84.7175L205.593 84.7019L205.594 84.686V84.6857L205.594 84.6702L205.595 84.6543L205.595 84.6387L205.595 84.6225L205.596 84.6069L205.596 84.5911L205.597 84.5755L205.597 84.5593L205.597 84.5437L205.598 84.5279L205.598 84.5123L205.61 83.9034L205.611 83.8867L205.611 83.8696L205.612 83.8529L205.612 83.8362L205.612 83.8192L205.612 83.8025L205.613 83.7857L205.613 83.7687L205.614 83.752L205.614 83.7353L205.614 83.7183L205.615 83.7016L205.615 83.6848L205.615 83.6678L205.616 83.6511L205.616 83.6344L205.616 83.6174L205.617 83.6006L205.617 83.5839L205.618 83.5335L205.618 83.5164L205.628 83.0297L205.629 83.013L205.629 82.9963L205.629 82.9793L205.629 82.9626L205.63 82.9458L205.63 82.9291L205.63 82.9124L205.631 82.8957L205.631 82.8787L205.631 82.8622L205.631 82.8455L205.632 82.8285L205.632 82.8027L205.633 82.7772L205.633 82.7514L205.633 82.7259L205.634 82.7001L205.634 82.6746L205.635 82.6488L205.635 82.6233L205.635 82.5975L205.636 82.5719L205.636 82.5462H205.636L205.636 82.5206L205.637 82.4951V82.4948L205.637 82.4693H205.637L205.638 82.4438V82.4435L205.638 82.418L205.638 82.3925H205.638L205.639 82.3667L205.639 82.3412L205.639 82.3157V82.3154L205.64 82.2899L205.64 82.2644L205.64 82.2386L205.641 82.2131H205.641L205.642 82.1876L205.642 82.1618L205.642 82.1363L205.642 82.1107L205.643 82.085H205.643L205.643 82.0594L205.644 82.0339L205.644 82.0084L205.644 81.9826L205.644 81.9571H205.645V81.9316H205.645V81.9061H205.645L205.646 81.8803L205.646 81.8548L205.646 81.8293L205.646 81.8038L205.647 81.7782L205.647 81.7527V81.7524L205.647 81.7269L205.648 81.7014H205.648V81.6759H205.648V81.6504H205.648V81.6249H205.649V81.5994L205.649 81.5991V81.5739L205.649 81.5736V81.5484L205.65 81.5481V81.5226H205.65V81.497H205.65V81.4715L205.65 81.446L205.651 81.4205L205.651 81.395L205.651 81.3695L205.652 81.344L205.652 81.3185L205.652 81.293V81.2674H205.652V81.2419L205.653 81.2164L205.653 81.1909L205.653 81.1739V81.1563L205.653 81.1393V81.122V81.1217V81.1047H205.654V81.0877V81.0702H205.654V81.0531V81.0361H205.654V81.0188V81.0186V81.0016H205.655V80.9845V80.9673V80.967L205.655 80.95V80.933V80.9157L205.655 80.9154V80.8984V80.8814L205.655 80.8641V80.8471V80.8468V80.8295H205.656V80.8125V80.7955L205.656 80.7782V80.7779V80.7612V80.7609V80.7439L205.656 80.7266V80.7096V80.6926V80.6923L205.657 80.6753V80.675V80.658V80.641L205.657 80.6237V80.6067V80.6064V80.5897V80.5894L205.657 80.5721V80.5551V80.5381L205.658 80.5208V80.5205V80.5038V80.5035V80.4868V80.4865V80.4692H205.658V80.4522V80.4352V80.4179H205.658V80.4176V80.4009V80.4006V80.3836V80.3833V80.3663V80.3493H205.659V80.332V80.315V80.298H205.659V80.2977V80.2807V80.2804V80.2637V80.2634V80.2464V80.2291H205.659V80.2121V80.1951V80.1778H205.659V80.1608V80.1605V80.1435V80.1262L205.66 80.1092V80.0922L205.663 79.4938L205.662 78.5459L205.661 77.8092V77.7936V77.7783L205.661 77.7627V77.7471V77.7315L205.66 77.7162V77.7009V77.7006V77.6853V77.6697V77.6694L205.66 77.6541V77.6388V77.6385V77.6232L205.66 77.6079V77.6073V77.592V77.5767V77.5614V77.5611L205.659 77.5458V77.5302V77.53V77.5149V77.5147L205.659 77.4993V77.484V77.4838V77.4684L205.659 77.4529V77.4526V77.4376V77.4373L205.659 77.422V77.4067V77.4064V77.3913V77.3908L205.658 77.3755V77.3602V77.3599V77.3449V77.3446L205.658 77.3293V77.3137V77.3134L205.658 77.2984V77.2981V77.2831V77.2828V77.2675V77.2672L205.657 77.2522V77.2519V77.2366V77.2363L205.657 77.221V77.2057V77.2054V77.1904V77.1901L205.657 77.1748V77.1592L205.656 77.1439V77.1436V77.1286V77.1283V77.113L205.656 77.0974V77.0971V77.0821V77.0818L205.656 77.0668V77.0665V77.0512L205.655 77.0359V77.0356V77.0203V77.02L205.655 77.0047V76.9894V76.9741V76.9738L205.655 76.9588V76.9585V76.9429L205.655 76.9276V76.9123V76.912L205.654 76.8967V76.8811L205.654 76.8658V76.8505V76.8502L205.654 76.8349V76.8196L205.648 76.1892L205.634 75.1163L205.625 74.5663L205.624 74.5493L205.624 74.5329L205.624 74.5162L205.623 74.4994L205.623 74.4827L205.623 74.466L205.609 73.767L205.609 73.7505L205.607 73.6839L205.607 73.6675L205.607 73.6507L205.606 73.6343L205.606 73.6009L205.605 73.5844L205.605 73.5677L205.605 73.5513L205.604 73.5345L205.604 73.5178L205.604 73.5014L205.591 72.9506L205.565 71.9174L205.547 71.309L205.514 70.2906L205.497 69.8039L205.456 68.717L205.434 68.1952L205.39 67.1926L205.363 66.6231L205.362 66.6075L205.361 66.5919L205.36 66.576L205.36 66.5602L205.359 66.5446L205.358 66.529L205.358 66.5131L205.357 66.4975L205.356 66.4819L205.355 66.4663L205.354 66.4505L205.353 66.419L205.352 66.4034L205.351 66.3719L205.35 66.3564L205.318 65.7001L205.316 65.6843L205.316 65.6687L205.315 65.6531L205.314 65.6378L205.313 65.6219L205.297 65.3155L205.291 65.2055L205.285 65.0955L205.279 64.9855L205.273 64.8758L205.267 64.7661L205.261 64.6567L205.255 64.5473V64.547L205.249 64.4376L205.242 64.3287V64.3284L205.236 64.2193L205.23 64.1105L205.224 64.0013L205.218 63.8928H205.217L205.211 63.7839H205.211L205.205 63.6753L205.198 63.5668L205.192 63.4585L205.185 63.3502V63.3499L205.179 63.2422V63.2419L205.172 63.1339H205.172L205.166 63.0259L205.159 62.9179L205.152 62.8105H205.152L205.146 62.7028V62.7025L205.139 62.5953L205.132 62.4876L205.125 62.3805H205.125L205.118 62.273L205.112 62.1662L205.104 62.0593L205.098 61.9524L205.091 61.8456H205.09L205.083 61.7393L205.077 61.6324H205.076L205.069 61.5261L205.062 61.4198L205.055 61.3135H205.055L205.048 61.2078H205.048L205.041 61.1015H205.04L205.033 60.9958L205.026 60.8903V60.89L205.019 60.7846H205.019L205.011 60.6791V60.6788L205.004 60.5737L204.997 60.4685H204.996L204.989 60.3636L204.989 60.3631L204.982 60.2582H204.981L204.974 60.1533H204.974L204.966 60.0487L204.959 59.9441L204.951 59.8392H204.951L204.943 59.7349L204.936 59.6306L204.928 59.5266H204.928L204.92 59.4225H204.92L204.913 59.3185L204.912 59.3182L204.905 59.2145H204.905L204.897 59.111V59.1107L204.889 59.0073L204.881 58.9038L204.873 58.8006L204.865 58.6974H204.865L204.857 58.5942L204.849 58.4911L204.842 58.3899L204.84 58.37L204.839 58.3505L204.837 58.3309C204.81 57.9854 204.781 57.6415 204.753 57.2997L204.752 57.2801L204.75 57.2608L204.749 57.2413L204.747 57.2223L204.746 57.2027L204.744 57.1834L204.742 57.1642L204.741 57.1449L204.729 56.9992L204.727 56.9819L204.726 56.9646L204.725 56.9473L204.723 56.93L204.722 56.9127L204.72 56.8952L204.719 56.8827L204.718 56.8702L204.717 56.8577L204.716 56.8456L204.715 56.8331L204.714 56.8206L204.713 56.8081L204.712 56.7957L204.711 56.7832L204.71 56.771L204.709 56.7585H204.709L204.708 56.7461L204.707 56.7339L204.706 56.7214L204.705 56.7092L204.704 56.6967L204.702 56.6843L204.701 56.6718L204.7 56.6596H204.7L204.699 56.6471L204.698 56.6347L204.697 56.6225H204.697L204.696 56.61L204.695 56.5975L204.694 56.585H204.694L204.693 56.5729L204.692 56.5604L204.691 56.5479H204.691L204.69 56.5357L204.689 56.5233L204.688 56.5108H204.688L204.687 56.4986L204.685 56.4861L204.684 56.4736L204.683 56.4615H204.683L204.682 56.449L204.681 56.4365L204.68 56.4243H204.68L204.679 56.4119L204.678 56.3994L204.677 56.3872H204.677L204.676 56.3747H204.676L204.675 56.3622L204.674 56.3501L204.673 56.3376H204.673L204.672 56.3254H204.672L204.671 56.3129L204.669 56.3004L204.668 56.2885H204.668L204.667 56.2761H204.667L204.666 56.2636L204.665 56.2514L204.664 56.2389H204.664L204.663 56.2265H204.663L204.662 56.2143L204.661 56.2018L204.66 56.1896H204.66L204.659 56.1771H204.659L204.658 56.1647L204.657 56.1525L204.655 56.14L204.655 56.1275H204.654L204.653 56.1153L204.652 56.1029L204.651 56.0859L204.649 56.0686L204.645 56.017L204.643 56L204.642 55.983L204.64 55.9657L204.639 55.9487L204.637 55.9317L204.636 55.9144L204.634 55.8974L204.606 55.5728L204.52 54.6232L204.478 54.1668L204.397 53.313L204.35 52.8351L204.257 51.9033L204.232 51.663L204.23 51.646L204.228 51.6292L204.227 51.6119L204.225 51.5952L204.223 51.5782L204.221 51.5612L204.212 51.4764L204.211 51.4594L204.209 51.4427L204.207 51.4257L204.206 51.4087L204.133 50.7187L204.132 50.702L204.13 50.6856L204.128 50.6686L204.126 50.6519L204.125 50.6354L204.123 50.6184L204.121 50.602L204.119 50.5852L204.106 50.4639L204.105 50.4466L204.102 50.4293L204.101 50.412L204.099 50.395L204.097 50.3775L204.095 50.3604L204.093 50.3432L204.092 50.3259V50.3256L204.09 50.3086H204.09L204.088 50.2916L204.086 50.274L204.084 50.257L204.082 50.2397L204.08 50.2224L204.079 50.2051L204.077 50.1881H204.077L204.075 50.1708L204.073 50.1535L204.071 50.1362L204.069 50.1192L204.067 50.1019L204.066 50.0846L204.064 50.0676H204.064L204.062 50.0506V50.0503L204.058 50.016L204.056 49.999H204.056L204.054 49.9817L204.052 49.9647V49.9644L204.051 49.9477V49.9474L204.049 49.9304V49.9302L204.047 49.9131H204.047L204.045 49.8961L204.043 49.8788H204.043L204.041 49.8618L204.04 49.8448H204.039L204.037 49.8275L204.036 49.8105H204.035L204.034 49.7935L204.032 49.7762H204.032L204.03 49.7592L204.026 49.7252V49.7249L204.022 49.6912V49.6906L204.021 49.6739H204.02L204.019 49.6569L204.017 49.6396H204.017L204.015 49.6229V49.6226L204.011 49.5886L204.01 49.5716H204.009L204.008 49.5548V49.5546L204.005 49.5376L204.004 49.5205L204.002 49.5038V49.5035L204 49.4865L203.998 49.4695L203.996 49.4528L203.994 49.4355L203.993 49.4188V49.4185L203.99 49.4018L203.989 49.3848V49.3845L203.987 49.3678L203.968 49.2005L203.954 49.0718L203.939 48.9434V48.9431L203.925 48.815L203.91 48.6872L203.896 48.5596L203.881 48.4323L203.867 48.3056V48.3053L203.852 48.1789V48.1786L203.838 48.0525L203.823 47.9263L203.808 47.8008V47.8005L203.793 47.6755V47.6752L203.779 47.5502H203.779L203.764 47.4257L203.75 47.3013V47.301L203.72 47.0533L203.705 46.93L203.691 46.8069V46.8067L203.676 46.6839H203.675L203.661 46.5615L203.646 46.4393L203.631 46.3177L203.616 46.1961L203.601 46.075L203.587 45.954H203.586L203.572 45.8338L203.557 45.7133L203.542 45.5937H203.542L203.527 45.4741L203.527 45.4738L203.512 45.355V45.3547L203.497 45.2363V45.236L203.482 45.1175L203.467 44.9993L203.452 44.8816L203.437 44.7643V44.764L203.422 44.6469V44.6467L203.407 44.5302V44.5299L203.392 44.4136V44.4134L203.377 44.2977V44.2974L203.362 44.1818V44.1815L203.347 44.0664L203.347 44.0661L203.332 43.9513L203.332 43.951L203.317 43.8365L203.317 43.8362L203.302 43.7223V43.722L203.287 43.608V43.6078L203.272 43.4944V43.4941L203.257 43.381L203.256 43.3807L203.241 43.2679L203.241 43.2676L203.226 43.1551V43.1548L203.211 43.0431V43.0425L203.196 42.9311V42.9308L203.181 42.8194L203.181 42.8192L203.166 42.708L203.166 42.7078L203.151 42.5972V42.5966L203.136 42.4867V42.4864L203.121 42.3764V42.3761L203.106 42.2667V42.2664L203.091 42.157H203.091L203.076 42.0479V42.0476L203.061 41.939L203.046 41.8304L203.031 41.7227V41.7224L203.016 41.6147L203.005 41.539L203.001 41.5098L202.997 41.4806L202.993 41.4517L202.989 41.4222L202.985 41.3933V41.393L202.981 41.3641L202.977 41.3349L202.972 41.306L202.968 41.2771V41.2768L202.964 41.2482V41.2479L202.96 41.219V41.2187L202.956 41.1901L202.952 41.1612H202.952L202.948 41.1323V41.132L202.944 41.1033L202.94 41.0747V41.0744L202.936 41.0458L202.932 41.0169L202.928 40.9883H202.927L202.923 40.9596L202.919 40.931L202.915 40.9021L202.911 40.8737V40.8735L202.907 40.8451L202.903 40.8165H202.903L202.899 40.7879H202.899L202.891 40.7309L202.887 40.7025L202.883 40.6742L202.879 40.6456L202.874 40.6172L202.87 40.5889H202.87L202.866 40.5608H202.866L202.863 40.5322H202.862L202.858 40.5041L202.854 40.4758L202.85 40.4477L202.846 40.4196L202.842 40.3913V40.391L202.838 40.3632L202.838 40.3629L202.834 40.3352L202.834 40.3349L202.83 40.3071H202.83L202.826 40.2787H202.825L202.821 40.2507L202.817 40.2229L202.813 40.1948L202.809 40.1671L202.805 40.1393V40.1387L202.801 40.1109L202.797 40.0832L202.793 40.0554H202.793L202.789 40.0276H202.789L202.785 40.0001L202.785 39.9998L202.781 39.972H202.781L202.777 39.9443H202.777L202.773 39.9168V39.9165L202.769 39.889L202.765 39.8615L202.76 39.8337L202.756 39.8059L202.753 39.7784L202.749 39.7509L202.744 39.7234L202.714 39.5182L202.614 38.8481L202.569 38.5536L202.459 37.835L202.451 37.78L202.44 37.7125L202.43 37.6456V37.6454L202.419 37.5782L202.409 37.5116L202.398 37.445L202.388 37.3786L202.378 37.3126L202.367 37.2462L202.357 37.1805L202.347 37.115H202.347L202.336 37.0498V37.0495L202.326 36.9846L202.316 36.9197V36.9194L202.305 36.8548L202.295 36.7904L202.285 36.7261H202.285L202.275 36.6617L202.265 36.5977L202.254 36.5342V36.5339L202.244 36.4707L202.234 36.4072L202.224 36.3445H202.224L202.214 36.2816H202.214L202.204 36.219H202.203L202.194 36.1566H202.193L202.184 36.0942H202.183L202.173 36.0324L202.173 36.0322L202.163 35.9707V35.9704L202.153 35.9089L202.143 35.8479L202.143 35.8476L202.133 35.7867L202.123 35.7257L202.113 35.6651V35.6648L202.103 35.6044L202.093 35.5443L202.084 35.4842H202.084L202.074 35.4244H202.074L202.064 35.3652L202.064 35.3649L202.054 35.3056V35.3054L202.044 35.2464V35.2461L202.035 35.1877L202.035 35.1874L202.025 35.1288H202.025L202.015 35.0707L202.015 35.0704L202.005 35.0123V35.012L201.996 34.9542L201.995 34.9539L201.986 34.8963L201.976 34.8388L201.976 34.8385L201.966 34.7815V34.7812L201.957 34.7243L201.957 34.724L201.947 34.6676L201.947 34.6673L201.938 34.6106L201.928 34.5545V34.5542L201.919 34.4983V34.4981L201.912 34.4598C201.499 32.2136 201.207 30.8176 201.127 30.4431C198.609 20.0204 194.073 16.9227 185.862 14.5206C170.937 10.2859 156.749 6.9476 144.15 4.88141ZM163.684 159.792C163.981 159.505 164.3 159.162 164.531 158.936L164.526 158.931C164.557 158.93 165.274 158.195 165.358 158.111L165.353 158.106L165.768 157.687L165.772 157.692C167.249 156.186 168.666 154.657 170.057 153.071L170.061 153.075C170.803 152.222 171.522 151.358 172.238 150.484L172.242 150.486C172.593 150.052 172.939 149.615 173.283 149.175L173.287 149.177C173.627 148.738 173.962 148.297 174.296 147.852L174.299 147.855L175.274 146.518L175.277 146.52L175.592 146.076L175.595 146.078C178.338 142.161 180.683 138.103 182.464 133.651L182.459 133.649C183.118 131.971 183.716 130.301 184.275 128.584L184.278 128.585L184.383 128.257L184.377 128.255L184.465 127.98L184.467 127.981L184.611 127.523L184.614 127.524L184.659 127.367L184.664 127.369L184.797 126.922L184.791 126.92C184.889 126.596 184.993 126.273 185.088 125.948L185.084 125.947C185.111 125.875 185.132 125.799 185.155 125.725L185.149 125.723L185.202 125.561L185.193 125.558L185.232 125.422L185.237 125.423C185.239 125.356 185.377 124.924 185.406 124.82L185.402 124.819L185.577 124.208L185.573 124.207C185.667 123.852 185.758 123.492 185.857 123.139L185.851 123.137L185.897 122.983L185.891 122.981L185.937 122.813L185.934 122.813L185.97 122.67H185.98L185.998 122.601L185.991 122.599L186.321 121.269L186.326 121.271L186.351 121.163L186.344 121.161L186.391 120.998L186.382 120.996L186.492 120.538L186.497 120.539L186.513 120.44L186.517 120.441C186.576 120.186 186.633 119.93 186.697 119.676C187.188 117.797 187.612 115.89 188.004 113.988L188 113.987L189.596 104.689L189.6 104.689C190.924 94.3658 191.324 83.4739 190.909 72.5747C190.478 61.2517 189.159 49.9112 187.076 39.1829C186.677 37.1221 186.318 35.1582 185.196 33.352C183.159 29.6803 179.856 28.1575 175.978 27.0599H175.969C172.335 26.0216 168.685 25.0247 165.019 24.0822C164.91 23.85 164.795 23.6187 164.67 23.3891C163.657 21.5242 163.922 21.5454 162.361 18.977C162.183 18.683 162.01 18.4052 161.843 18.1419C167.032 19.4047 172.196 20.7863 177.336 22.2552C182.459 23.7131 186.693 25.9414 189.434 30.7158C190.875 33.0266 191.416 35.3351 191.929 37.9889C194.128 49.3493 195.449 60.8359 195.889 72.399C196.315 83.5833 195.899 94.7827 194.528 105.421L192.903 114.905C192.49 116.915 192.048 118.906 191.529 120.892C191.502 121.036 191.376 121.481 191.376 121.593L191.37 121.618L191.363 121.616C191.339 121.786 191.283 121.978 191.245 122.148H191.235L191.221 122.206L191.228 122.208C191.206 122.301 191.172 122.381 191.161 122.48L191.156 122.478C191.042 122.954 190.926 123.427 190.804 123.898L190.814 123.9L190.771 124.055L190.774 124.056L190.713 124.265L190.72 124.266C190.643 124.567 190.568 124.897 190.473 125.187L190.476 125.188L190.23 126.08L190.234 126.081C190.166 126.266 190.115 126.63 190.037 126.77L189.998 126.925H189.988L189.967 127L189.973 127.002L189.922 127.156L189.928 127.157C189.793 127.564 189.685 127.99 189.559 128.4L189.556 128.399C189.544 128.439 189.427 128.857 189.42 128.855C189.403 128.911 188.94 130.419 188.911 130.447L188.917 130.449L188.808 130.758L188.817 130.761L188.769 130.906L188.763 130.904L188.608 131.373L188.606 131.372C188.58 131.478 188.528 131.618 188.491 131.726L188.488 131.725L188.428 131.892L188.425 131.891C188.2 132.539 187.987 133.197 187.767 133.848H187.746L187.649 134.124H187.645L187.567 134.345H187.538L187.148 135.363L187.151 135.364L187.129 135.419L187.126 135.418L186.523 136.946H186.491C185.051 140.306 183.283 143.5 181.288 146.561C181.057 146.916 180.49 147.669 180.318 148.012L179.317 149.448C178.346 150.79 177.347 152.102 176.307 153.391C176.307 153.5 173.46 156.757 172.876 157.419C172.876 157.47 170.414 160.079 170.045 160.455C170.045 160.489 168.575 162.044 168.46 162.163L168.457 162.16L168.388 162.229C166.789 161.184 165.486 160.023 163.684 159.792Z" fill="#808285"/>
</svg>
