<svg width="55" height="57" viewBox="0 0 55 57" fill="none" xmlns="http://www.w3.org/2000/svg">
<path d="M54.0212 23.6935L54.0295 23.5353L54.0394 23.3332C54.0436 23.2468 54.047 23.1609 54.0507 23.075L54.0595 22.87L54.0683 22.628C54.0711 22.5511 54.074 22.474 54.0762 22.3972L54.0816 22.211C54.0839 22.1217 54.0867 22.0324 54.0887 21.9434L54.0921 21.7827C54.0941 21.688 54.0964 21.5933 54.0978 21.4989C54.1 21.3544 54.102 21.2101 54.1034 21.0664C54.104 20.9694 54.1046 20.8727 54.1051 20.7761L54.106 20.6182L54.1057 20.3679L54.1054 20.1734C54.1049 20.0858 54.1043 19.9991 54.1034 19.9121L54.102 19.7457L54.0983 19.4622L54.0961 19.3171C54.0944 19.223 54.0924 19.1294 54.0904 19.0359L54.087 18.8902L54.0802 18.6175L54.0754 18.4571L54.0666 18.1878L54.0621 18.0594L54.0513 17.7725L54.0453 17.6347L54.034 17.3697L54.0266 17.2195C54.0224 17.131 54.0181 17.0429 54.0139 16.955L54.0093 16.8742C53.9765 16.2537 53.9365 15.6519 53.8911 15.0719L53.8891 15.0453L53.8625 14.7165L53.8594 14.6779L53.8344 14.3871L53.8271 14.3015L53.8044 14.0506L53.7931 13.9301L53.7715 13.7045L53.7593 13.5784L53.7347 13.3323L53.7281 13.2688C53.7185 13.1733 53.7086 13.0783 53.6984 12.9842L53.695 12.9522C53.6845 12.855 53.674 12.7583 53.6635 12.6628L53.6584 12.6185C53.5776 11.892 53.4917 11.2211 53.4073 10.6153L53.4044 10.5955C53.3815 10.4308 53.3582 10.2709 53.3355 10.1161L53.3276 10.0617L53.301 9.88481L53.2893 9.80711L53.2601 9.6172L53.2582 9.60281C53.1992 9.22241 53.1422 8.87851 53.0903 8.57691L53.0594 8.39971L53.0592 8.39661C53.02 8.17471 52.9843 7.97941 52.9526 7.81011L52.9478 7.78491C52.8755 7.40191 52.8253 7.16271 52.81 7.09181C52.7014 6.59891 52.5458 6.11981 52.2669 5.66881C51.5355 4.37031 50.3756 3.82751 49.0946 3.46291C40.4234 0.972108 33.6138 -0.0655957 27.053 0.00320435C20.4919 -0.0655957 13.6825 0.972108 5.0114 3.46291C3.7304 3.82751 2.5704 4.37031 1.8388 5.66881C1.5602 6.11981 1.4046 6.59891 1.296 7.09181C1.2807 7.16271 1.2305 7.40191 1.1582 7.78491L1.1534 7.81011C1.1217 7.97941 1.0859 8.17441 1.0468 8.39661L1.0463 8.39971L1.0156 8.57691C0.963502 8.87851 0.906801 9.22241 0.847801 9.60281L0.845596 9.6172L0.816597 9.80711L0.804695 9.88481L0.778397 10.0617L0.770401 10.1161C0.747501 10.2712 0.724499 10.4308 0.701599 10.5955L0.6987 10.6153C0.6143 11.2213 0.528401 11.892 0.447601 12.6185L0.442497 12.6628C0.431697 12.7583 0.421195 12.855 0.410995 12.9522L0.407295 12.9842L0.3778 13.2688L0.3713 13.3323L0.346695 13.5784L0.334198 13.7045L0.312897 13.9301L0.301598 14.0506L0.2789 14.3015L0.2715 14.3871C0.263 14.4835 0.254797 14.5804 0.246597 14.6779L0.2435 14.7165C0.2344 14.8253 0.225299 14.9347 0.216599 15.0453L0.214897 15.0719C0.169497 15.6519 0.129496 16.2537 0.0965958 16.8742L0.0921021 16.955L0.0791016 17.2195L0.0719986 17.3697L0.0604019 17.6347L0.0546951 17.7725L0.0438995 18.0594L0.0393982 18.1878L0.0306015 18.4571L0.025795 18.6175L0.0189972 18.8902L0.0156021 19.0359L0.00989532 19.3171L0.00759888 19.4622L0.0039978 19.7457L0.00229645 19.9121C0.00169645 19.9991 0.000795093 20.0858 0.000595093 20.1734L0.000297546 20.3679L0 20.6182L0.000801086 20.7761C0.00140109 20.8727 0.00170244 20.9694 0.00250244 21.0664C0.00400244 21.2101 0.0059016 21.3541 0.0082016 21.4989C0.0096016 21.5933 0.0119008 21.688 0.0139008 21.7827L0.0172958 21.9434C0.0192958 22.0324 0.0217988 22.1217 0.0243988 22.211L0.0297012 22.3972C0.0320012 22.474 0.0348968 22.5511 0.0376968 22.628C0.0404968 22.7085 0.0434012 22.7893 0.0465012 22.87L0.0550003 23.075C0.0587003 23.1609 0.062597 23.2468 0.066597 23.3332L0.0764999 23.5353C0.0810999 23.6255 0.0858958 23.7162 0.0909958 23.8063L0.101997 23.9982L0.118797 24.2732L0.131798 24.4705C0.138298 24.5635 0.144796 24.6564 0.151596 24.7494L0.165497 24.9396C0.173197 25.0377 0.181102 25.1358 0.189102 25.2344L0.202896 25.4036C0.212596 25.5148 0.222497 25.6259 0.232697 25.737L0.245499 25.8753C0.256199 25.9904 0.267895 26.1058 0.279495 26.2214L0.293098 26.3558L0.297897 26.4054L0.299301 26.4133C0.338201 26.7821 0.380996 27.1518 0.428596 27.5217C2.3887 27.3122 4.4748 27.3794 6.5877 27.8001L10.7974 14.647C11.2785 13.1438 12.3639 12.9227 13.8886 12.4595C16.4758 11.6738 17.6556 11.3634 20.243 10.577C17.4997 16.7495 14.7566 22.9216 12.0132 29.0938C20.6325 31.9522 27.7223 36.8888 38.3525 33.6921C38.3723 33.6862 38.5033 33.6321 38.5951 33.5946C38.7601 32.5753 39.0229 31.4777 39.3846 30.303C39.7548 29.1 40.1457 27.8723 40.5572 26.6191C40.9853 25.3107 43.2014 20.0921 42.2954 18.6892C42.1421 18.4511 41.8824 18.4009 41.5176 18.5387C38.228 19.7817 33.6311 28.8704 32.2435 29.536C31.0844 30.0921 29.8519 29.8617 28.4774 29.5711C27.9456 29.4589 27.5791 29.3081 27.3481 28.9583C27.0626 28.5254 27.3104 27.6286 27.5655 26.415C28.1509 23.6326 29.4236 19.5694 29.5926 18.1864C29.7578 16.8339 28.9088 16.7843 28.108 17.6597C25.592 20.4098 23.6086 24.8812 21.3449 30.7016C21.1391 31.2308 17.3171 29.3495 15.8862 28.7219C14.9947 28.3307 15.5035 27.6955 15.8814 26.7558C17.2097 23.4514 21.7358 13.0395 28.1208 10.0297C33.9888 7.26391 38.6614 11.5164 37.2739 18.2748C39.4475 16.1536 43.9432 14.367 47.3275 15.4934C48.0801 15.744 48.6921 16.1009 49.1644 16.5647C49.636 17.0281 49.962 17.5857 50.1417 18.2374C50.3215 18.8891 50.3484 19.5779 50.2225 20.3047C50.0712 21.1817 49.8231 22.1464 49.479 23.1989C49.1346 24.2514 48.7817 25.3538 48.42 26.5066C47.6577 28.6618 47.1586 30.328 46.9224 31.5058C46.6866 32.6836 46.711 33.3412 46.9956 33.479C47.2805 33.6167 47.8309 33.2035 48.647 32.2385C49.4634 31.2739 50.5287 29.714 51.8431 27.5591C52.6161 26.281 53.3302 25.0156 53.9852 23.7627L54.0212 23.6935ZM46.311 7.09471C38.6183 4.88511 32.6109 3.98111 26.8208 4.06931C21.0325 4.15711 15.4202 5.24001 8.5294 7.00231H8.5187C7.1283 7.33701 6.2937 7.76701 5.7846 8.25521C5.3189 8.70191 5.1196 9.22551 4.9977 9.77621L4.9994 9.77651C4.9147 10.1708 3.5946 16.4722 3.9209 23.795C3.9532 24.5226 4.0019 25.2602 4.0697 26.0029C3.6119 26.0057 3.1011 26.0205 2.698 26.0088C2.6339 25.284 2.5869 24.5643 2.5554 23.8542C2.2212 16.3521 3.5739 9.89531 3.6606 9.49141L3.6632 9.48601C3.8367 8.69991 4.1298 7.94251 4.8421 7.25941C5.5111 6.61791 6.5421 6.06851 8.1927 5.66971L8.1921 5.66741C15.1676 3.88331 20.8686 2.7869 26.8047 2.6964C32.7387 2.6063 38.8672 3.52471 46.6857 5.77061C47.505 6.00451 48.2808 6.3183 48.9421 6.8812C49.6179 7.4561 50.1474 8.26651 50.4397 9.47241L50.4453 9.4885C50.4955 9.7227 50.9703 11.9884 51.2963 15.312C51.2127 15.255 51.1271 15.206 51.0389 15.1638C50.9595 15.0943 50.8725 15.03 50.7773 14.9716C50.4331 14.7613 50.1939 14.5549 49.8282 14.4358C49.5227 11.7588 49.1502 9.98291 49.1065 9.77941L49.1077 9.77911C48.7139 8.17551 47.8329 7.52701 46.3136 7.09471H46.311ZM51.8029 21.1758C51.7232 22.7382 51.6073 24.2451 51.3655 25.7911C50.779 26.5007 50.1321 27.1943 49.5706 27.9262C49.8957 26.4848 49.9124 26.7969 50.0658 25.3467C50.4544 24.8651 51.533 21.7257 51.8029 21.1758Z" fill="white"/>
<path d="M1.3606 32.3055C1.5919 33.3002 1.8652 34.2898 2.2082 35.2862C3.2751 34.4363 3.9628 33.7373 4.5394 32.4334C4.0493 32.3654 3.5611 32.3194 3.0747 32.2996C2.4607 32.2746 1.8915 32.2789 1.3606 32.3055ZM46.3524 40.5101C45.1859 41.9487 43.8276 43.298 42.3935 44.5393C37.3076 48.9421 31.2483 52.0089 29.5557 52.8247L29.3717 52.8984C27.5513 53.5915 26.7514 53.8959 24.5474 52.8247L24.548 52.8233C22.8529 52.0063 16.7961 48.9404 11.7125 44.5393C10.1078 43.1503 8.598 41.6261 7.346 39.9931C7.734 39.7802 8.0759 39.4313 8.3514 39.056C9.5559 40.6451 11.0319 42.1372 12.6068 43.5004C17.5666 47.7943 23.4859 50.7897 25.1393 51.5865H25.1419C26.8169 52.4009 27.4498 52.16 28.8898 51.612L29.0046 51.5684C30.708 50.7452 36.5757 47.7626 41.4992 43.5004C42.192 42.9006 42.8658 42.2758 43.5056 41.629C43.5469 41.6304 43.5892 41.6312 43.6323 41.6312C44.4665 41.6312 44.4897 41.4524 45.1899 41.2335C45.5737 41.1134 45.9757 40.8648 46.3045 40.5291L46.3524 40.5101ZM19.9335 52.8905L19.944 52.8967C20.0452 52.9551 20.1452 53.0126 20.2447 53.0693L20.2615 53.0792C20.3587 53.1345 20.4548 53.1889 20.5497 53.2428L20.5798 53.2598C21.1725 53.5949 21.7247 53.8965 22.2247 54.1632L22.2573 54.1805L22.4538 54.2848L22.5405 54.3307L22.7191 54.4246L22.7724 54.4523L22.9575 54.549L22.9669 54.5538L23.1687 54.6579L23.188 54.6678L23.3986 54.7758L23.4119 54.7826L23.5981 54.8773L23.6412 54.8988L23.7005 54.9286L23.8297 54.9935L23.8898 55.0235L24.0298 55.0933L24.0789 55.1176L24.194 55.1743L24.2541 55.2038C24.3626 55.2568 24.4618 55.3053 24.5497 55.3475C25.6195 55.8677 26.3608 56.0616 27.053 56.0423C27.7452 56.0616 28.4865 55.8677 29.5563 55.3475C29.6441 55.305 29.7431 55.2571 29.8519 55.2038L29.9117 55.1743L30.0268 55.1176L30.0761 55.0933L30.2162 55.0235L30.2763 54.9935L30.4055 54.9286L30.4648 54.8988L30.5079 54.8773L30.6938 54.7826L30.7074 54.7758L30.918 54.6678L30.9373 54.6579L31.1391 54.5538L31.1485 54.549L31.3336 54.4523L31.3869 54.4246L31.5655 54.3307L31.6519 54.2848L31.8486 54.1805L31.8812 54.1632C32.3816 53.8962 32.9332 53.5949 33.5262 53.2598L33.556 53.2428C33.6512 53.1889 33.7473 53.1345 33.8442 53.0792L33.8612 53.0693C33.9605 53.0126 34.0605 52.9551 34.162 52.8967L34.1725 52.8905C39.8755 49.5972 48.6587 43.5659 51.5069 36.3449C52.0738 34.9077 52.4783 33.4921 52.8004 32.0649C52.9435 31.5158 53.0719 30.9435 53.2029 30.3026C51.7479 32.5346 50.3861 34.3388 49.1179 35.7156C46.7229 38.2966 44.4702 39.5872 42.3589 39.5872C41.0924 39.5872 40.1139 39.2362 39.4234 38.5347C38.897 38.0083 38.5849 37.3254 38.4863 36.4861C38.3876 35.6465 38.4205 34.7071 38.5838 33.667L38.5934 33.6058C38.5106 33.6458 38.4004 33.6971 38.3893 33.7059C27.4408 42.2265 18.2055 36.7474 9.8178 33.8246C8.7999 36.0195 6.3093 38.241 4.2539 39.5121C8.0166 45.3154 15.0874 50.0918 19.9335 52.8905Z" fill="white"/>
</svg>
