<svg id="visual" viewBox="0 0 1440 300" width="1440" height="300" xmlns="http://www.w3.org/2000/svg" xmlns:xlink="http://www.w3.org/1999/xlink" version="1.1"><path d="M0 10L15 10C30 10 60 10 90 10C120 10 150 10 180 10.5C210 11 240 12 270 12.5C300 13 330 13 360 12.5C390 12 420 11 450 10.5C480 10 510 10 540 10C570 10 600 10 630 10C660 10 690 10 720 10C750 10 780 10 810 10.5C840 11 870 12 900 12.5C930 13 960 13 990 12.5C1020 12 1050 11 1080 10.5C1110 10 1140 10 1170 10.5C1200 11 1230 12 1260 12.5C1290 13 1320 13 1350 12.5C1380 12 1410 11 1425 10.5L1440 10L1440 0L1425 0C1410 0 1380 0 1350 0C1320 0 1290 0 1260 0C1230 0 1200 0 1170 0C1140 0 1110 0 1080 0C1050 0 1020 0 990 0C960 0 930 0 900 0C870 0 840 0 810 0C780 0 750 0 720 0C690 0 660 0 630 0C600 0 570 0 540 0C510 0 480 0 450 0C420 0 390 0 360 0C330 0 300 0 270 0C240 0 210 0 180 0C150 0 120 0 90 0C60 0 30 0 15 0L0 0Z" fill="#f9dec9"></path><path d="M0 22L15 22C30 22 60 22 90 22.5C120 23 150 24 180 25C210 26 240 27 270 27.5C300 28 330 28 360 27C390 26 420 24 450 23.5C480 23 510 24 540 24C570 24 600 23 630 22.5C660 22 690 22 720 22.5C750 23 780 24 810 24.5C840 25 870 25 900 25C930 25 960 25 990 25C1020 25 1050 25 1080 24.5C1110 24 1140 23 1170 23C1200 23 1230 24 1260 24.5C1290 25 1320 25 1350 24.5C1380 24 1410 23 1425 22.5L1440 22L1440 8L1425 8.5C1410 9 1380 10 1350 10.5C1320 11 1290 11 1260 10.5C1230 10 1200 9 1170 8.5C1140 8 1110 8 1080 8.5C1050 9 1020 10 990 10.5C960 11 930 11 900 10.5C870 10 840 9 810 8.5C780 8 750 8 720 8C690 8 660 8 630 8C600 8 570 8 540 8C510 8 480 8 450 8.5C420 9 390 10 360 10.5C330 11 300 11 270 10.5C240 10 210 9 180 8.5C150 8 120 8 90 8C60 8 30 8 15 8L0 8Z" fill="#f7cdb3"></path><path d="M0 49L15 47.5C30 46 60 43 90 42.5C120 42 150 44 180 45C210 46 240 46 270 47C300 48 330 50 360 49C390 48 420 44 450 44C480 44 510 48 540 49.5C570 51 600 50 630 49C660 48 690 47 720 46C750 45 780 44 810 43.5C840 43 870 43 900 44.5C930 46 960 49 990 49C1020 49 1050 46 1080 45.5C1110 45 1140 47 1170 47.5C1200 48 1230 47 1260 46.5C1290 46 1320 46 1350 45.5C1380 45 1410 44 1425 43.5L1440 43L1440 20L1425 20.5C1410 21 1380 22 1350 22.5C1320 23 1290 23 1260 22.5C1230 22 1200 21 1170 21C1140 21 1110 22 1080 22.5C1050 23 1020 23 990 23C960 23 930 23 900 23C870 23 840 23 810 22.5C780 22 750 21 720 20.5C690 20 660 20 630 20.5C600 21 570 22 540 22C510 22 480 21 450 21.5C420 22 390 24 360 25C330 26 300 26 270 25.5C240 25 210 24 180 23C150 22 120 21 90 20.5C60 20 30 20 15 20L0 20Z" fill="#f6bba0"></path><path d="M0 64L15 62C30 60 60 56 90 55.5C120 55 150 58 180 59.5C210 61 240 61 270 61.5C300 62 330 63 360 62C390 61 420 58 450 58C480 58 510 61 540 62C570 63 600 62 630 61C660 60 690 59 720 58C750 57 780 56 810 56C840 56 870 57 900 59C930 61 960 64 990 63.5C1020 63 1050 59 1080 58C1110 57 1140 59 1170 59.5C1200 60 1230 59 1260 58.5C1290 58 1320 58 1350 58C1380 58 1410 58 1425 58L1440 58L1440 41L1425 41.5C1410 42 1380 43 1350 43.5C1320 44 1290 44 1260 44.5C1230 45 1200 46 1170 45.5C1140 45 1110 43 1080 43.5C1050 44 1020 47 990 47C960 47 930 44 900 42.5C870 41 840 41 810 41.5C780 42 750 43 720 44C690 45 660 46 630 47C600 48 570 49 540 47.5C510 46 480 42 450 42C420 42 390 46 360 47C330 48 300 46 270 45C240 44 210 44 180 43C150 42 120 40 90 40.5C60 41 30 44 15 45.5L0 47Z" fill="#f5a891"></path><path d="M0 94L15 93.5C30 93 60 92 90 92.5C120 93 150 95 180 94.5C210 94 240 91 270 92C300 93 330 98 360 97C390 96 420 89 450 88C480 87 510 92 540 94.5C570 97 600 97 630 96C660 95 690 93 720 93C750 93 780 95 810 94.5C840 94 870 91 900 92.5C930 94 960 100 990 101.5C1020 103 1050 100 1080 98C1110 96 1140 95 1170 94C1200 93 1230 92 1260 93C1290 94 1320 97 1350 96.5C1380 96 1410 92 1425 90L1440 88L1440 56L1425 56C1410 56 1380 56 1350 56C1320 56 1290 56 1260 56.5C1230 57 1200 58 1170 57.5C1140 57 1110 55 1080 56C1050 57 1020 61 990 61.5C960 62 930 59 900 57C870 55 840 54 810 54C780 54 750 55 720 56C690 57 660 58 630 59C600 60 570 61 540 60C510 59 480 56 450 56C420 56 390 59 360 60C330 61 300 60 270 59.5C240 59 210 59 180 57.5C150 56 120 53 90 53.5C60 54 30 58 15 60L0 62Z" fill="#f49386"></path><path d="M0 112L15 112C30 112 60 112 90 112C120 112 150 112 180 110.5C210 109 240 106 270 107.5C300 109 330 115 360 114.5C390 114 420 107 450 105.5C480 104 510 108 540 111C570 114 600 116 630 115C660 114 690 110 720 110C750 110 780 114 810 113.5C840 113 870 108 900 108.5C930 109 960 115 990 117C1020 119 1050 117 1080 115C1110 113 1140 111 1170 109.5C1200 108 1230 107 1260 108C1290 109 1320 112 1350 112C1380 112 1410 109 1425 107.5L1440 106L1440 86L1425 88C1410 90 1380 94 1350 94.5C1320 95 1290 92 1260 91C1230 90 1200 91 1170 92C1140 93 1110 94 1080 96C1050 98 1020 101 990 99.5C960 98 930 92 900 90.5C870 89 840 92 810 92.5C780 93 750 91 720 91C690 91 660 93 630 94C600 95 570 95 540 92.5C510 90 480 85 450 86C420 87 390 94 360 95C330 96 300 91 270 90C240 89 210 92 180 92.5C150 93 120 91 90 90.5C60 90 30 91 15 91.5L0 92Z" fill="#f38b83"></path><path d="M0 178L15 178.5C30 179 60 180 90 179.5C120 179 150 177 180 172.5C210 168 240 161 270 160.5C300 160 330 166 360 168.5C390 171 420 170 450 168.5C480 167 510 165 540 165.5C570 166 600 169 630 170C660 171 690 170 720 168C750 166 780 163 810 162C840 161 870 162 900 165C930 168 960 173 990 172.5C1020 172 1050 166 1080 165.5C1110 165 1140 170 1170 173C1200 176 1230 177 1260 174.5C1290 172 1320 166 1350 164C1380 162 1410 164 1425 165L1440 166L1440 104L1425 105.5C1410 107 1380 110 1350 110C1320 110 1290 107 1260 106C1230 105 1200 106 1170 107.5C1140 109 1110 111 1080 113C1050 115 1020 117 990 115C960 113 930 107 900 106.5C870 106 840 111 810 111.5C780 112 750 108 720 108C690 108 660 112 630 113C600 114 570 112 540 109C510 106 480 102 450 103.5C420 105 390 112 360 112.5C330 113 300 107 270 105.5C240 104 210 107 180 108.5C150 110 120 110 90 110C60 110 30 110 15 110L0 110Z" fill="#f38b83"></path><path d="M0 229L15 229.5C30 230 60 231 90 232.5C120 234 150 236 180 234C210 232 240 226 270 224.5C300 223 330 226 360 226C390 226 420 223 450 222.5C480 222 510 224 540 225C570 226 600 226 630 226C660 226 690 226 720 226.5C750 227 780 228 810 229.5C840 231 870 233 900 233C930 233 960 231 990 230C1020 229 1050 229 1080 230C1110 231 1140 233 1170 233.5C1200 234 1230 233 1260 232C1290 231 1320 230 1350 230.5C1380 231 1410 233 1425 234L1440 235L1440 164L1425 163C1410 162 1380 160 1350 162C1320 164 1290 170 1260 172.5C1230 175 1200 174 1170 171C1140 168 1110 163 1080 163.5C1050 164 1020 170 990 170.5C960 171 930 166 900 163C870 160 840 159 810 160C780 161 750 164 720 166C690 168 660 169 630 168C600 167 570 164 540 163.5C510 163 480 165 450 166.5C420 168 390 169 360 166.5C330 164 300 158 270 158.5C240 159 210 166 180 170.5C150 175 120 177 90 177.5C60 178 30 177 15 176.5L0 176Z" fill="#f49386"></path><path d="M0 262L15 261C30 260 60 258 90 258C120 258 150 260 180 259C210 258 240 254 270 253.5C300 253 330 256 360 256.5C390 257 420 255 450 254C480 253 510 253 540 253.5C570 254 600 255 630 255C660 255 690 254 720 254.5C750 255 780 257 810 258C840 259 870 259 900 259C930 259 960 259 990 259C1020 259 1050 259 1080 259C1110 259 1140 259 1170 259C1200 259 1230 259 1260 259C1290 259 1320 259 1350 259C1380 259 1410 259 1425 259L1440 259L1440 233L1425 232C1410 231 1380 229 1350 228.5C1320 228 1290 229 1260 230C1230 231 1200 232 1170 231.5C1140 231 1110 229 1080 228C1050 227 1020 227 990 228C960 229 930 231 900 231C870 231 840 229 810 227.5C780 226 750 225 720 224.5C690 224 660 224 630 224C600 224 570 224 540 223C510 222 480 220 450 220.5C420 221 390 224 360 224C330 224 300 221 270 222.5C240 224 210 230 180 232C150 234 120 232 90 230.5C60 229 30 228 15 227.5L0 227Z" fill="#f5a891"></path><path d="M0 277L15 277.5C30 278 60 279 90 279C120 279 150 278 180 276.5C210 275 240 273 270 273C300 273 330 275 360 275.5C390 276 420 275 450 274C480 273 510 272 540 272C570 272 600 273 630 273C660 273 690 272 720 272.5C750 273 780 275 810 275.5C840 276 870 275 900 275.5C930 276 960 278 990 279C1020 280 1050 280 1080 279.5C1110 279 1140 278 1170 277C1200 276 1230 275 1260 275C1290 275 1320 276 1350 276C1380 276 1410 275 1425 274.5L1440 274L1440 257L1425 257C1410 257 1380 257 1350 257C1320 257 1290 257 1260 257C1230 257 1200 257 1170 257C1140 257 1110 257 1080 257C1050 257 1020 257 990 257C960 257 930 257 900 257C870 257 840 257 810 256C780 255 750 253 720 252.5C690 252 660 253 630 253C600 253 570 252 540 251.5C510 251 480 251 450 252C420 253 390 255 360 254.5C330 254 300 251 270 251.5C240 252 210 256 180 257C150 258 120 256 90 256C60 256 30 258 15 259L0 260Z" fill="#f6bba0"></path><path d="M0 292L15 292C30 292 60 292 90 291.5C120 291 150 290 180 289.5C210 289 240 289 270 289C300 289 330 289 360 289.5C390 290 420 291 450 291C480 291 510 290 540 289.5C570 289 600 289 630 289C660 289 690 289 720 289.5C750 290 780 291 810 291.5C840 292 870 292 900 292C930 292 960 292 990 292C1020 292 1050 292 1080 291.5C1110 291 1140 290 1170 289.5C1200 289 1230 289 1260 289C1290 289 1320 289 1350 289.5C1380 290 1410 291 1425 291.5L1440 292L1440 272L1425 272.5C1410 273 1380 274 1350 274C1320 274 1290 273 1260 273C1230 273 1200 274 1170 275C1140 276 1110 277 1080 277.5C1050 278 1020 278 990 277C960 276 930 274 900 273.5C870 273 840 274 810 273.5C780 273 750 271 720 270.5C690 270 660 271 630 271C600 271 570 270 540 270C510 270 480 271 450 272C420 273 390 274 360 273.5C330 273 300 271 270 271C240 271 210 273 180 274.5C150 276 120 277 90 277C60 277 30 276 15 275.5L0 275Z" fill="#f7cdb3"></path><path d="M0 301L15 301C30 301 60 301 90 301C120 301 150 301 180 301C210 301 240 301 270 301C300 301 330 301 360 301C390 301 420 301 450 301C480 301 510 301 540 301C570 301 600 301 630 301C660 301 690 301 720 301C750 301 780 301 810 301C840 301 870 301 900 301C930 301 960 301 990 301C1020 301 1050 301 1080 301C1110 301 1140 301 1170 301C1200 301 1230 301 1260 301C1290 301 1320 301 1350 301C1380 301 1410 301 1425 301L1440 301L1440 290L1425 289.5C1410 289 1380 288 1350 287.5C1320 287 1290 287 1260 287C1230 287 1200 287 1170 287.5C1140 288 1110 289 1080 289.5C1050 290 1020 290 990 290C960 290 930 290 900 290C870 290 840 290 810 289.5C780 289 750 288 720 287.5C690 287 660 287 630 287C600 287 570 287 540 287.5C510 288 480 289 450 289C420 289 390 288 360 287.5C330 287 300 287 270 287C240 287 210 287 180 287.5C150 288 120 289 90 289.5C60 290 30 290 15 290L0 290Z" fill="#f9dec9"></path></svg>