<svg id="visual" viewBox="0 0 1440 600" width="1440" height="600" xmlns="http://www.w3.org/2000/svg" xmlns:xlink="http://www.w3.org/1999/xlink" version="1.1"><path d="M0 43L48 43C96 43 192 43 288 40C384 37 480 31 576 28C672 25 768 25 864 26C960 27 1056 29 1152 31C1248 33 1344 35 1392 36L1440 37L1440 0L1392 0C1344 0 1248 0 1152 0C1056 0 960 0 864 0C768 0 672 0 576 0C480 0 384 0 288 0C192 0 96 0 48 0L0 0Z" fill="#f9dec9"></path><path d="M0 85L48 86C96 87 192 89 288 86C384 83 480 75 576 70C672 65 768 63 864 65C960 67 1056 73 1152 74C1248 75 1344 71 1392 69L1440 67L1440 35L1392 34C1344 33 1248 31 1152 29C1056 27 960 25 864 24C768 23 672 23 576 26C480 29 384 35 288 38C192 41 96 41 48 41L0 41Z" fill="#f7c6ac"></path><path d="M0 121L48 121C96 121 192 121 288 121C384 121 480 121 576 120C672 119 768 117 864 119C960 121 1056 127 1152 126C1248 125 1344 117 1392 113L1440 109L1440 65L1392 67C1344 69 1248 73 1152 72C1056 71 960 65 864 63C768 61 672 63 576 68C480 73 384 81 288 84C192 87 96 85 48 84L0 83Z" fill="#f6ac95"></path><path d="M0 235L48 240C96 245 192 255 288 257C384 259 480 253 576 255C672 257 768 267 864 270C960 273 1056 269 1152 268C1248 267 1344 269 1392 270L1440 271L1440 107L1392 111C1344 115 1248 123 1152 124C1056 125 960 119 864 117C768 115 672 117 576 118C480 119 384 119 288 119C192 119 96 119 48 119L0 119Z" fill="#f49185"></path><path d="M0 367L48 368C96 369 192 371 288 377C384 383 480 393 576 399C672 405 768 407 864 399C960 391 1056 373 1152 367C1248 361 1344 367 1392 370L1440 373L1440 269L1392 268C1344 267 1248 265 1152 266C1056 267 960 271 864 268C768 265 672 255 576 253C480 251 384 257 288 255C192 253 96 243 48 238L0 233Z" fill="#f38b83"></path><path d="M0 433L48 440C96 447 192 461 288 468C384 475 480 475 576 475C672 475 768 475 864 468C960 461 1056 447 1152 445C1248 443 1344 453 1392 458L1440 463L1440 371L1392 368C1344 365 1248 359 1152 365C1056 371 960 389 864 397C768 405 672 403 576 397C480 391 384 381 288 375C192 369 96 367 48 366L0 365Z" fill="#f49185"></path><path d="M0 487L48 492C96 497 192 507 288 512C384 517 480 517 576 516C672 515 768 513 864 509C960 505 1056 499 1152 497C1248 495 1344 497 1392 498L1440 499L1440 461L1392 456C1344 451 1248 441 1152 443C1056 445 960 459 864 466C768 473 672 473 576 473C480 473 384 473 288 466C192 459 96 445 48 438L0 431Z" fill="#f6ac95"></path><path d="M0 529L48 532C96 535 192 541 288 544C384 547 480 547 576 545C672 543 768 539 864 536C960 533 1056 531 1152 532C1248 533 1344 537 1392 539L1440 541L1440 497L1392 496C1344 495 1248 493 1152 495C1056 497 960 503 864 507C768 511 672 513 576 514C480 515 384 515 288 510C192 505 96 495 48 490L0 485Z" fill="#f7c6ac"></path><path d="M0 601L48 601C96 601 192 601 288 601C384 601 480 601 576 601C672 601 768 601 864 601C960 601 1056 601 1152 601C1248 601 1344 601 1392 601L1440 601L1440 539L1392 537C1344 535 1248 531 1152 530C1056 529 960 531 864 534C768 537 672 541 576 543C480 545 384 545 288 542C192 539 96 533 48 530L0 527Z" fill="#f9dec9"></path></svg>