<svg id="visual" viewBox="0 0 1440 250" width="1440" height="250" xmlns="http://www.w3.org/2000/svg" xmlns:xlink="http://www.w3.org/1999/xlink" version="1.1"><path d="M0 9L15 9C30 9 60 9 90 9C120 9 150 9 180 9.3C210 9.7 240 10.3 270 10.7C300 11 330 11 360 10.7C390 10.3 420 9.7 450 9.3C480 9 510 9 540 9C570 9 600 9 630 9C660 9 690 9 720 9C750 9 780 9 810 9.3C840 9.7 870 10.3 900 10.7C930 11 960 11 990 10.7C1020 10.3 1050 9.7 1080 9.3C1110 9 1140 9 1170 9.3C1200 9.7 1230 10.3 1260 10.7C1290 11 1320 11 1350 10.7C1380 10.3 1410 9.7 1425 9.3L1440 9L1440 0L1425 0C1410 0 1380 0 1350 0C1320 0 1290 0 1260 0C1230 0 1200 0 1170 0C1140 0 1110 0 1080 0C1050 0 1020 0 990 0C960 0 930 0 900 0C870 0 840 0 810 0C780 0 750 0 720 0C690 0 660 0 630 0C600 0 570 0 540 0C510 0 480 0 450 0C420 0 390 0 360 0C330 0 300 0 270 0C240 0 210 0 180 0C150 0 120 0 90 0C60 0 30 0 15 0L0 0Z" fill="#f9dec9"></path><path d="M0 19L15 19C30 19 60 19 90 19.3C120 19.7 150 20.3 180 21.2C210 22 240 23 270 23.5C300 24 330 24 360 23.2C390 22.3 420 20.7 450 20.2C480 19.7 510 20.3 540 20.3C570 20.3 600 19.7 630 19.3C660 19 690 19 720 19.3C750 19.7 780 20.3 810 20.7C840 21 870 21 900 21C930 21 960 21 990 21C1020 21 1050 21 1080 20.7C1110 20.3 1140 19.7 1170 19.7C1200 19.7 1230 20.3 1260 20.7C1290 21 1320 21 1350 20.7C1380 20.3 1410 19.7 1425 19.3L1440 19L1440 7L1425 7.3C1410 7.7 1380 8.3 1350 8.7C1320 9 1290 9 1260 8.7C1230 8.3 1200 7.7 1170 7.3C1140 7 1110 7 1080 7.3C1050 7.7 1020 8.3 990 8.7C960 9 930 9 900 8.7C870 8.3 840 7.7 810 7.3C780 7 750 7 720 7C690 7 660 7 630 7C600 7 570 7 540 7C510 7 480 7 450 7.3C420 7.7 390 8.3 360 8.7C330 9 300 9 270 8.7C240 8.3 210 7.7 180 7.3C150 7 120 7 90 7C60 7 30 7 15 7L0 7Z" fill="#f7cdb3"></path><path d="M0 41L15 39.8C30 38.7 60 36.3 90 36C120 35.7 150 37.3 180 38.2C210 39 240 39 270 39.8C300 40.7 330 42.3 360 41.5C390 40.7 420 37.3 450 37.3C480 37.3 510 40.7 540 41.8C570 43 600 42 630 41.2C660 40.3 690 39.7 720 38.8C750 38 780 37 810 36.5C840 36 870 36 900 37.3C930 38.7 960 41.3 990 41.3C1020 41.3 1050 38.7 1080 38.2C1110 37.7 1140 39.3 1170 39.8C1200 40.3 1230 39.7 1260 39.3C1290 39 1320 39 1350 38.5C1380 38 1410 37 1425 36.5L1440 36L1440 17L1425 17.3C1410 17.7 1380 18.3 1350 18.7C1320 19 1290 19 1260 18.7C1230 18.3 1200 17.7 1170 17.7C1140 17.7 1110 18.3 1080 18.7C1050 19 1020 19 990 19C960 19 930 19 900 19C870 19 840 19 810 18.7C780 18.3 750 17.7 720 17.3C690 17 660 17 630 17.3C600 17.7 570 18.3 540 18.3C510 18.3 480 17.7 450 18.2C420 18.7 390 20.3 360 21.2C330 22 300 22 270 21.5C240 21 210 20 180 19.2C150 18.3 120 17.7 90 17.3C60 17 30 17 15 17L0 17Z" fill="#f6bba0"></path><path d="M0 54L15 52.3C30 50.7 60 47.3 90 46.8C120 46.3 150 48.7 180 49.8C210 51 240 51 270 51.5C300 52 330 53 360 52.2C390 51.3 420 48.7 450 48.7C480 48.7 510 51.3 540 52.2C570 53 600 52 630 51.2C660 50.3 690 49.7 720 48.8C750 48 780 47 810 47C840 47 870 48 900 49.7C930 51.3 960 53.7 990 53.2C1020 52.7 1050 49.3 1080 48.5C1110 47.7 1140 49.3 1170 49.8C1200 50.3 1230 49.7 1260 49.3C1290 49 1320 49 1350 49C1380 49 1410 49 1425 49L1440 49L1440 34L1425 34.5C1410 35 1380 36 1350 36.5C1320 37 1290 37 1260 37.3C1230 37.7 1200 38.3 1170 37.8C1140 37.3 1110 35.7 1080 36.2C1050 36.7 1020 39.3 990 39.3C960 39.3 930 36.7 900 35.3C870 34 840 34 810 34.5C780 35 750 36 720 36.8C690 37.7 660 38.3 630 39.2C600 40 570 41 540 39.8C510 38.7 480 35.3 450 35.3C420 35.3 390 38.7 360 39.5C330 40.3 300 38.7 270 37.8C240 37 210 37 180 36.2C150 35.3 120 33.7 90 34C60 34.3 30 36.7 15 37.8L0 39Z" fill="#f5a891"></path><path d="M0 79L15 78.5C30 78 60 77 90 77.3C120 77.7 150 79.3 180 79C210 78.7 240 76.3 270 77.2C300 78 330 82 360 81.2C390 80.3 420 74.7 450 73.8C480 73 510 77 540 79C570 81 600 81 630 80.2C660 79.3 690 77.7 720 77.7C750 77.7 780 79.3 810 79C840 78.7 870 76.3 900 77.7C930 79 960 84 990 85.2C1020 86.3 1050 83.7 1080 82C1110 80.3 1140 79.7 1170 78.8C1200 78 1230 77 1260 77.8C1290 78.7 1320 81.3 1350 81C1380 80.7 1410 77.3 1425 75.7L1440 74L1440 47L1425 47C1410 47 1380 47 1350 47C1320 47 1290 47 1260 47.3C1230 47.7 1200 48.3 1170 47.8C1140 47.3 1110 45.7 1080 46.5C1050 47.3 1020 50.7 990 51.2C960 51.7 930 49.3 900 47.7C870 46 840 45 810 45C780 45 750 46 720 46.8C690 47.7 660 48.3 630 49.2C600 50 570 51 540 50.2C510 49.3 480 46.7 450 46.7C420 46.7 390 49.3 360 50.2C330 51 300 50 270 49.5C240 49 210 49 180 47.8C150 46.7 120 44.3 90 44.8C60 45.3 30 48.7 15 50.3L0 52Z" fill="#f49386"></path><path d="M0 94L15 94C30 94 60 94 90 94C120 94 150 94 180 92.7C210 91.3 240 88.7 270 89.8C300 91 330 96 360 95.7C390 95.3 420 89.7 450 88.5C480 87.3 510 90.7 540 93.2C570 95.7 600 97.3 630 96.5C660 95.7 690 92.3 720 92.3C750 92.3 780 95.7 810 95.2C840 94.7 870 90.3 900 90.7C930 91 960 96 990 97.7C1020 99.3 1050 97.7 1080 96C1110 94.3 1140 92.7 1170 91.5C1200 90.3 1230 89.7 1260 90.5C1290 91.3 1320 93.7 1350 93.7C1380 93.7 1410 91.3 1425 90.2L1440 89L1440 72L1425 73.7C1410 75.3 1380 78.7 1350 79C1320 79.3 1290 76.7 1260 75.8C1230 75 1200 76 1170 76.8C1140 77.7 1110 78.3 1080 80C1050 81.7 1020 84.3 990 83.2C960 82 930 77 900 75.7C870 74.3 840 76.7 810 77C780 77.3 750 75.7 720 75.7C690 75.7 660 77.3 630 78.2C600 79 570 79 540 77C510 75 480 71 450 71.8C420 72.7 390 78.3 360 79.2C330 80 300 76 270 75.2C240 74.3 210 76.7 180 77C150 77.3 120 75.7 90 75.3C60 75 30 76 15 76.5L0 77Z" fill="#f38b83"></path><path d="M0 149L15 149.3C30 149.7 60 150.3 90 149.8C120 149.3 150 147.7 180 144C210 140.3 240 134.7 270 134.3C300 134 330 139 360 141C390 143 420 142 450 140.7C480 139.3 510 137.7 540 138.2C570 138.7 600 141.3 630 142.2C660 143 690 142 720 140.3C750 138.7 780 136.3 810 135.5C840 134.7 870 135.3 900 137.8C930 140.3 960 144.7 990 144.3C1020 144 1050 139 1080 138.5C1110 138 1140 142 1170 144.5C1200 147 1230 148 1260 146C1290 144 1320 139 1350 137.3C1380 135.7 1410 137.3 1425 138.2L1440 139L1440 87L1425 88.2C1410 89.3 1380 91.7 1350 91.7C1320 91.7 1290 89.3 1260 88.5C1230 87.7 1200 88.3 1170 89.5C1140 90.7 1110 92.3 1080 94C1050 95.7 1020 97.3 990 95.7C960 94 930 89 900 88.7C870 88.3 840 92.7 810 93.2C780 93.7 750 90.3 720 90.3C690 90.3 660 93.7 630 94.5C600 95.3 570 93.7 540 91.2C510 88.7 480 85.3 450 86.5C420 87.7 390 93.3 360 93.7C330 94 300 89 270 87.8C240 86.7 210 89.3 180 90.7C150 92 120 92 90 92C60 92 30 92 15 92L0 92Z" fill="#f38b83"></path><path d="M0 191L15 191.5C30 192 60 193 90 194.3C120 195.7 150 197.3 180 195.7C210 194 240 189 270 187.7C300 186.3 330 188.7 360 188.7C390 188.7 420 186.3 450 186C480 185.7 510 187.3 540 188.2C570 189 600 189 630 189C660 189 690 189 720 189.3C750 189.7 780 190.3 810 191.5C840 192.7 870 194.3 900 194.3C930 194.3 960 192.7 990 191.8C1020 191 1050 191 1080 191.8C1110 192.7 1140 194.3 1170 194.8C1200 195.3 1230 194.7 1260 193.8C1290 193 1320 192 1350 192.3C1380 192.7 1410 194.3 1425 195.2L1440 196L1440 137L1425 136.2C1410 135.3 1380 133.7 1350 135.3C1320 137 1290 142 1260 144C1230 146 1200 145 1170 142.5C1140 140 1110 136 1080 136.5C1050 137 1020 142 990 142.3C960 142.7 930 138.3 900 135.8C870 133.3 840 132.7 810 133.5C780 134.3 750 136.7 720 138.3C690 140 660 141 630 140.2C600 139.3 570 136.7 540 136.2C510 135.7 480 137.3 450 138.7C420 140 390 141 360 139C330 137 300 132 270 132.3C240 132.7 210 138.3 180 142C150 145.7 120 147.3 90 147.8C60 148.3 30 147.7 15 147.3L0 147Z" fill="#f49386"></path><path d="M0 219L15 218.2C30 217.3 60 215.7 90 215.7C120 215.7 150 217.3 180 216.5C210 215.7 240 212.3 270 211.8C300 211.3 330 213.7 360 214C390 214.3 420 212.7 450 211.8C480 211 510 211 540 211.5C570 212 600 213 630 213C660 213 690 212 720 212.3C750 212.7 780 214.3 810 215.2C840 216 870 216 900 216C930 216 960 216 990 216C1020 216 1050 216 1080 216C1110 216 1140 216 1170 216C1200 216 1230 216 1260 216C1290 216 1320 216 1350 216C1380 216 1410 216 1425 216L1440 216L1440 194L1425 193.2C1410 192.3 1380 190.7 1350 190.3C1320 190 1290 191 1260 191.8C1230 192.7 1200 193.3 1170 192.8C1140 192.3 1110 190.7 1080 189.8C1050 189 1020 189 990 189.8C960 190.7 930 192.3 900 192.3C870 192.3 840 190.7 810 189.5C780 188.3 750 187.7 720 187.3C690 187 660 187 630 187C600 187 570 187 540 186.2C510 185.3 480 183.7 450 184C420 184.3 390 186.7 360 186.7C330 186.7 300 184.3 270 185.7C240 187 210 192 180 193.7C150 195.3 120 193.7 90 192.3C60 191 30 190 15 189.5L0 189Z" fill="#f5a891"></path><path d="M0 231L15 231.5C30 232 60 233 90 233C120 233 150 232 180 230.7C210 229.3 240 227.7 270 227.7C300 227.7 330 229.3 360 229.8C390 230.3 420 229.7 450 228.8C480 228 510 227 540 227C570 227 600 228 630 228C660 228 690 227 720 227.3C750 227.7 780 229.3 810 229.8C840 230.3 870 229.7 900 230.2C930 230.7 960 232.3 990 233.2C1020 234 1050 234 1080 233.5C1110 233 1140 232 1170 231.2C1200 230.3 1230 229.7 1260 229.7C1290 229.7 1320 230.3 1350 230.3C1380 230.3 1410 229.7 1425 229.3L1440 229L1440 214L1425 214C1410 214 1380 214 1350 214C1320 214 1290 214 1260 214C1230 214 1200 214 1170 214C1140 214 1110 214 1080 214C1050 214 1020 214 990 214C960 214 930 214 900 214C870 214 840 214 810 213.2C780 212.3 750 210.7 720 210.3C690 210 660 211 630 211C600 211 570 210 540 209.5C510 209 480 209 450 209.8C420 210.7 390 212.3 360 212C330 211.7 300 209.3 270 209.8C240 210.3 210 213.7 180 214.5C150 215.3 120 213.7 90 213.7C60 213.7 30 215.3 15 216.2L0 217Z" fill="#f6bba0"></path><path d="M0 244L15 244C30 244 60 244 90 243.5C120 243 150 242 180 241.5C210 241 240 241 270 241C300 241 330 241 360 241.5C390 242 420 243 450 243C480 243 510 242 540 241.5C570 241 600 241 630 241C660 241 690 241 720 241.5C750 242 780 243 810 243.5C840 244 870 244 900 244C930 244 960 244 990 244C1020 244 1050 244 1080 243.5C1110 243 1140 242 1170 241.5C1200 241 1230 241 1260 241C1290 241 1320 241 1350 241.5C1380 242 1410 243 1425 243.5L1440 244L1440 227L1425 227.3C1410 227.7 1380 228.3 1350 228.3C1320 228.3 1290 227.7 1260 227.7C1230 227.7 1200 228.3 1170 229.2C1140 230 1110 231 1080 231.5C1050 232 1020 232 990 231.2C960 230.3 930 228.7 900 228.2C870 227.7 840 228.3 810 227.8C780 227.3 750 225.7 720 225.3C690 225 660 226 630 226C600 226 570 225 540 225C510 225 480 226 450 226.8C420 227.7 390 228.3 360 227.8C330 227.3 300 225.7 270 225.7C240 225.7 210 227.3 180 228.7C150 230 120 231 90 231C60 231 30 230 15 229.5L0 229Z" fill="#f7cdb3"></path><path d="M0 251L15 251C30 251 60 251 90 251C120 251 150 251 180 251C210 251 240 251 270 251C300 251 330 251 360 251C390 251 420 251 450 251C480 251 510 251 540 251C570 251 600 251 630 251C660 251 690 251 720 251C750 251 780 251 810 251C840 251 870 251 900 251C930 251 960 251 990 251C1020 251 1050 251 1080 251C1110 251 1140 251 1170 251C1200 251 1230 251 1260 251C1290 251 1320 251 1350 251C1380 251 1410 251 1425 251L1440 251L1440 242L1425 241.5C1410 241 1380 240 1350 239.5C1320 239 1290 239 1260 239C1230 239 1200 239 1170 239.5C1140 240 1110 241 1080 241.5C1050 242 1020 242 990 242C960 242 930 242 900 242C870 242 840 242 810 241.5C780 241 750 240 720 239.5C690 239 660 239 630 239C600 239 570 239 540 239.5C510 240 480 241 450 241C420 241 390 240 360 239.5C330 239 300 239 270 239C240 239 210 239 180 239.5C150 240 120 241 90 241.5C60 242 30 242 15 242L0 242Z" fill="#f9dec9"></path></svg>