<svg width="1440" height="350" viewBox="0 0 1440 350" fill="none" xmlns="http://www.w3.org/2000/svg">
<path d="M0 36.145L34.3 36.3759C68.7 36.6838 137.3 37.1456 205.8 28.6013C274.3 19.9801 342.7 2.27561 411.2 0.197266C479.7 -1.8041 548.3 11.7436 617 26.2921C685.7 40.7635 754.3 56.1587 823 59.0068C891.7 61.7779 960.3 52.0789 1028.8 37.2996C1097.3 22.5202 1165.7 2.81446 1234.2 10.8969C1302.7 18.9794 1371.3 54.8501 1405.7 72.8624L1440 90.7977V274H1405.7C1371.3 274 1302.7 274 1234.2 274C1165.7 274 1097.3 274 1028.8 274C960.3 274 891.7 274 823 274C754.3 274 685.7 274 617 274C548.3 274 479.7 274 411.2 274C342.7 274 274.3 274 205.8 274C137.3 274 68.7 274 34.3 274H0V36.145Z" fill="#FA7268"/>
<path d="M0 69.7627L34.3 74.5047C68.7 79.2467 137.3 88.7307 205.8 81.8332C274.3 74.9358 342.7 51.6569 411.2 40.7073C479.7 29.8438 548.3 31.2233 617 51.9156C685.7 72.6079 754.3 112.613 823 129.684C891.7 146.755 960.3 141.065 1028.8 122.787C1097.3 104.509 1165.7 73.815 1234.2 68.297C1302.7 62.8653 1371.3 82.6954 1405.7 92.6105L1440 102.526V306H1405.7C1371.3 306 1302.7 306 1234.2 306C1165.7 306 1097.3 306 1028.8 306C960.3 306 891.7 306 823 306C754.3 306 685.7 306 617 306C548.3 306 479.7 306 411.2 306C342.7 306 274.3 306 205.8 306C137.3 306 68.7 306 34.3 306H0V69.7627Z" fill="#FA9774"/>
<path d="M0 159.568L34.3 167.189C68.7 174.723 137.3 189.965 205.8 190.929C274.3 191.98 342.7 178.84 411.2 177.701C479.7 176.475 548.3 187.337 617 194.433C685.7 201.616 754.3 205.12 823 189.965C891.7 174.723 960.3 140.909 1028.8 137.405C1097.3 133.901 1165.7 160.707 1234.2 159.568C1302.7 158.429 1371.3 129.171 1405.7 114.629L1440 100V319H1405.7C1371.3 319 1302.7 319 1234.2 319C1165.7 319 1097.3 319 1028.8 319C960.3 319 891.7 319 823 319C754.3 319 685.7 319 617 319C548.3 319 479.7 319 411.2 319C342.7 319 274.3 319 205.8 319C137.3 319 68.7 319 34.3 319H0V159.568Z" fill="#F9B88C"/>
<path d="M0 215.955L34.3 221.655C68.7 227.255 137.3 238.655 205.8 236.255C274.3 233.955 342.7 217.955 411.2 221.655C479.7 225.255 548.3 248.655 617 258.755C685.7 268.955 754.3 265.955 823 252.955C891.7 239.955 960.3 216.955 1028.8 207.655C1097.3 198.255 1165.7 202.655 1234.2 203.255C1302.7 203.955 1371.3 200.955 1405.7 199.455L1440 197.955V315.5H1406.7C1372.3 315.5 1302.7 315.5 1234.2 315.5C1165.7 315.5 1097.3 315.5 1028.8 315.5C960.3 315.5 898.7 328 830 328C761.3 328 685.7 315.5 617 315.5C548.3 315.5 486 309.5 417.5 309.5C349 309.5 277 322.5 208.5 322.5C140 322.5 76.9 315.5 42.5 315.5L0 322.5V215.955Z" fill="#F8D6AF"/>
<path d="M0 252.998L34.3 260.798C68.7 268.698 137.3 284.298 205.8 291.498C274.3 298.698 342.7 297.298 411.2 293.298C479.7 289.298 548.3 282.698 617 274.698C685.7 266.698 754.3 257.298 823 258.998C891.7 260.698 960.3 273.298 1028.8 270.498C1097.3 267.698 1165.7 249.298 1234.2 248.498C1302.7 247.698 1371.3 264.298 1405.7 272.698L1440 280.998V349.998H1405.7C1371.3 349.998 1302.7 349.998 1234.2 349.998C1165.7 349.998 1097.3 349.998 1028.8 349.998C960.3 349.998 891.7 349.998 823 349.998C754.3 349.998 685.7 349.998 617 349.998C548.3 349.998 479.7 349.998 411.2 349.998C342.7 349.998 274.3 349.998 205.8 349.998C137.3 349.998 68.7 349.998 34.3 349.998H0V252.998Z" fill="#FCF0D9"/>
</svg>
