<svg id="visual" viewBox="0 0 1440 540" width="1440" height="540" xmlns="http://www.w3.org/2000/svg" xmlns:xlink="http://www.w3.org/1999/xlink" version="1.1"><path d="M0 300L40 303C80 306 160 312 240 309.7C320 307.3 400 296.7 480 290.5C560 284.3 640 282.7 720 285.2C800 287.7 880 294.3 960 294.3C1040 294.3 1120 287.7 1200 289.5C1280 291.3 1360 301.7 1400 306.8L1440 312L1440 541L1400 541C1360 541 1280 541 1200 541C1120 541 1040 541 960 541C880 541 800 541 720 541C640 541 560 541 480 541C400 541 320 541 240 541C160 541 80 541 40 541L0 541Z" fill="#f37c73"></path><path d="M0 342L40 343.7C80 345.3 160 348.7 240 353.8C320 359 400 366 480 363.8C560 361.7 640 350.3 720 353.3C800 356.3 880 373.7 960 378C1040 382.3 1120 373.7 1200 372.2C1280 370.7 1360 376.3 1400 379.2L1440 382L1440 541L1400 541C1360 541 1280 541 1200 541C1120 541 1040 541 960 541C880 541 800 541 720 541C640 541 560 541 480 541C400 541 320 541 240 541C160 541 80 541 40 541L0 541Z" fill="#fab488"></path><path d="M0 455L40 450C80 445 160 435 240 431.7C320 428.3 400 431.7 480 439.3C560 447 640 459 720 464.7C800 470.3 880 469.7 960 461.5C1040 453.3 1120 437.7 1200 435.5C1280 433.3 1360 444.7 1400 450.3L1440 456L1440 541L1400 541C1360 541 1280 541 1200 541C1120 541 1040 541 960 541C880 541 800 541 720 541C640 541 560 541 480 541C400 541 320 541 240 541C160 541 80 541 40 541L0 541Z" fill="#ffe7b9"></path></svg>