<svg width="1440" height="356" viewBox="0 0 1440 356" fill="none" xmlns="http://www.w3.org/2000/svg">
<path d="M0 43.7961L34.3 44.0759C68.7 44.449 137.3 45.0086 205.8 34.6557C274.3 24.2094 342.7 2.75731 411.2 0.239023C479.7 -2.186 548.3 14.2295 617 31.8576C685.7 49.3923 754.3 68.0463 823 71.4973C891.7 74.855 960.3 63.103 1028.8 45.1952C1097.3 27.2873 1165.7 3.41022 1234.2 13.2036C1302.7 22.9969 1371.3 66.4607 1405.7 88.2859L1440 110.018V332H1405.7C1371.3 332 1302.7 332 1234.2 332C1165.7 332 1097.3 332 1028.8 332C960.3 332 891.7 332 823 332C754.3 332 685.7 332 617 332C548.3 332 479.7 332 411.2 332C342.7 332 274.3 332 205.8 332C137.3 332 68.7 332 34.3 332H0V43.7961Z" fill="#FA7268"/>
<path d="M0 81.9562L34.3 87.4562C68.7 92.9562 137.3 103.956 205.8 95.9562C274.3 87.9562 342.7 60.9562 411.2 48.2562C479.7 35.6562 548.3 37.2562 617 61.2562C685.7 85.2562 754.3 131.656 823 151.456C891.7 171.256 960.3 164.656 1028.8 143.456C1097.3 122.256 1165.7 86.6562 1234.2 80.2562C1302.7 73.9562 1371.3 96.9562 1405.7 108.456L1440 119.956V355.956H1405.7C1371.3 355.956 1302.7 355.956 1234.2 355.956C1165.7 355.956 1097.3 355.956 1028.8 355.956C960.3 355.956 891.7 355.956 823 355.956C754.3 355.956 685.7 355.956 617 355.956C548.3 355.956 479.7 355.956 411.2 355.956C342.7 355.956 274.3 355.956 205.8 355.956C137.3 355.956 68.7 355.956 34.3 355.956H0V81.9562Z" fill="#FA9774"/>
<path d="M0 173.956L34.3 182.656C68.7 191.256 137.3 208.656 205.8 209.756C274.3 210.956 342.7 195.956 411.2 194.656C479.7 193.256 548.3 205.656 617 213.756C685.7 221.956 754.3 225.956 823 208.656C891.7 191.256 960.3 152.656 1028.8 148.656C1097.3 144.656 1165.7 175.256 1234.2 173.956C1302.7 172.656 1371.3 139.256 1405.7 122.656L1440 105.956V355.956H1405.7C1371.3 355.956 1302.7 355.956 1234.2 355.956C1165.7 355.956 1097.3 355.956 1028.8 355.956C960.3 355.956 891.7 355.956 823 355.956C754.3 355.956 685.7 355.956 617 355.956C548.3 355.956 479.7 355.956 411.2 355.956C342.7 355.956 274.3 355.956 205.8 355.956C137.3 355.956 68.7 355.956 34.3 355.956H0V173.956Z" fill="#F9B88C"/>
<path d="M0 221.956L34.3 227.656C68.7 233.256 137.3 244.656 205.8 242.256C274.3 239.956 342.7 223.956 411.2 227.656C479.7 231.256 548.3 254.656 617 264.756C685.7 274.956 754.3 271.956 823 258.956C891.7 245.956 960.3 222.956 1028.8 213.656C1097.3 204.256 1165.7 208.656 1234.2 209.256C1302.7 209.956 1371.3 206.956 1405.7 205.456L1440 203.956V355.956H1405.7C1371.3 355.956 1302.7 355.956 1234.2 355.956C1165.7 355.956 1097.3 355.956 1028.8 355.956C960.3 355.956 891.7 355.956 823 355.956C754.3 355.956 685.7 355.956 617 355.956C548.3 355.956 479.7 355.956 411.2 355.956C342.7 355.956 274.3 355.956 205.8 355.956C137.3 355.956 68.7 355.956 34.3 355.956H0V221.956Z" fill="#F8D6AF"/>
<path d="M0 258.956L34.3 266.756C68.7 274.656 137.3 290.256 205.8 297.456C274.3 304.656 342.7 303.256 411.2 299.256C479.7 295.256 548.3 288.656 617 280.656C685.7 272.656 754.3 263.256 823 264.956C891.7 266.656 960.3 279.256 1028.8 276.456C1097.3 273.656 1165.7 255.256 1234.2 254.456C1302.7 253.656 1371.3 270.256 1405.7 278.656L1440 286.956V355.956H1405.7C1371.3 355.956 1302.7 355.956 1234.2 355.956C1165.7 355.956 1097.3 355.956 1028.8 355.956C960.3 355.956 891.7 355.956 823 355.956C754.3 355.956 685.7 355.956 617 355.956C548.3 355.956 479.7 355.956 411.2 355.956C342.7 355.956 274.3 355.956 205.8 355.956C137.3 355.956 68.7 355.956 34.3 355.956H0V258.956Z" fill="#FCF0D9"/>
</svg>
